<?xml version="1.0" encoding="UTF-8" standalone="no"?>
<svg
   viewBox="0 0 1000.0004 1713.2914"
   width="1in"
   id="svg13515"
   gorn="0"
   version="1.2"
   height="1.7132908in"
   sodipodi:docname="ESP32-C3-DevKitM-1_1_pcb.svg"
   inkscape:version="1.1.1 (3bf5ae0d25, 2021-09-20)"
   xmlns:inkscape="http://www.inkscape.org/namespaces/inkscape"
   xmlns:sodipodi="http://sodipodi.sourceforge.net/DTD/sodipodi-0.dtd"
   xmlns="http://www.w3.org/2000/svg"
   xmlns:svg="http://www.w3.org/2000/svg"
   xmlns:rdf="http://www.w3.org/1999/02/22-rdf-syntax-ns#"
   xmlns:cc="http://creativecommons.org/ns#"
   xmlns:dc="http://purl.org/dc/elements/1.1/">
  <sodipodi:namedview
     id="namedview73"
     pagecolor="#ffffff"
     bordercolor="#cccccc"
     borderopacity="1"
     inkscape:pageshadow="0"
     inkscape:pageopacity="1"
     inkscape:pagecheckerboard="0"
     inkscape:document-units="in"
     showgrid="true"
     inkscape:zoom="4.3167414"
     inkscape:cx="53.165103"
     inkscape:cy="82.237959"
     inkscape:window-width="1500"
     inkscape:window-height="938"
     inkscape:window-x="-6"
     inkscape:window-y="-6"
     inkscape:window-maximized="1"
     inkscape:current-layer="copper0">
    <inkscape:grid
       type="xygrid"
       id="grid1103" />
  </sodipodi:namedview>
  <desc
     id="desc13517">
    <referenceFile
       id="referenceFile13519">ESP32-C3-DevKitM-1_1_pcb.svg</referenceFile>
  </desc>
  <metadata
     id="metadata13646">
    <rdf:RDF>
      <cc:Work
         rdf:about="">
        <dc:format>image/svg+xml</dc:format>
        <dc:type
           rdf:resource="http://purl.org/dc/dcmitype/StillImage" />
      </cc:Work>
    </rdf:RDF>
  </metadata>
  <defs
     id="defs13644" />
  <g
     id="silkscreen"
     transform="matrix(0.90917773,0,0,1.0002437,0.92824174,-0.18435288)">
    <rect
       gorn="0.3.0"
       ry="31.288904"
       rx="43.245834"
       height="1496.667"
       width="1089.4065"
       y="211.62448"
       id="rect5"
       x="12.773523"
       fill="none"
       stroke="#000000"
       stroke-width="10" />
    <line
       y1="211.24617"
       x1="265.30341"
       id="line80"
       x2="265.30341"
       y2="3.9544258"
       gorn="0.3.8"
       stroke-miterlimit="4"
       stroke="#000000"
       stroke-width="10"
       stroke-linejoin="miter"
       stroke-dasharray="none" />
    <line
       y1="210.20454"
       x1="854.60565"
       id="line82"
       x2="854.60565"
       y2="4.9961357"
       gorn="0.3.9"
       stroke-miterlimit="4"
       stroke="#000000"
       stroke-width="10"
       stroke-linejoin="miter"
       stroke-dasharray="none" />
    <line
       y1="5"
       x1="264.26172"
       id="line84"
       x2="855.73071"
       y2="5"
       gorn="0.3.10"
       stroke-miterlimit="4"
       stroke="#000000"
       stroke-width="10"
       stroke-linejoin="miter"
       stroke-dasharray="none" />
  </g>
  <g
     id="copper1">
    <g
       id="copper0">
      <path
         gorn="0.4.0.1"
         id="path423"
         d="m 1003.9476,1654.1721 a 25.986819,25.986814 0 0 1 -25.98688,25.9873 H 925.9871 a 25.986819,25.986814 0 0 1 -25.98677,-25.9873 v 0 a 25.986819,25.986814 0 0 1 25.98677,-25.9873 h 51.97362 a 25.986819,25.986814 0 0 1 25.98688,25.9873 z m -52.72922,-15.9391 a 15.992809,15.992806 0 1 0 0,31.9856 15.992809,15.992806 0 1 0 0,-31.9856 z"
         fill="#f7bd13"
         stroke="none"
         stroke-width="9.99493" />
      <path
         gorn="0.4.0.3"
         id="path467"
         d="m 1004.0317,1554.1721 a 25.986819,25.986814 0 0 1 -25.98688,25.9873 H 926.0712 a 25.986819,25.986814 0 0 1 -25.98677,-25.9873 v 0 a 25.986819,25.986814 0 0 1 25.98677,-25.9873 h 51.97362 a 25.986819,25.986814 0 0 1 25.98688,25.9873 z m -52.72922,-15.935 a 15.991889,15.991886 0 1 0 0,31.9814 15.991889,15.991886 0 1 0 0,-31.9814 z"
         fill="#f7bd13"
         stroke="none"
         stroke-width="9.99493" />
      <path
         gorn="0.4.0.5"
         id="path13574-4"
         d="m 1004.0845,1454.1721 a 26.000028,25.986814 0 0 1 -26.00008,25.9873 H 926.0844 a 26.000028,25.986814 0 0 1 -25.99997,-25.9873 v 0 a 26.000028,25.986814 0 0 1 25.99997,-25.9872 h 52.00002 a 26.000028,25.986814 0 0 1 26.00008,25.9872 z m -52.75602,-15.9391 a 16.000018,15.991886 0 1 0 0,31.9815 16.000018,15.991886 0 1 0 0,-31.9815 z"
         fill="#f7bd13"
         stroke="none"
         stroke-width="9.99493" />
      <path
         gorn="0.4.0.7"
         id="path461"
         d="m 1004.0317,1354.1721 a 25.986819,25.986814 0 0 1 -25.98688,25.9872 H 926.0712 a 25.986819,25.986814 0 0 1 -25.98677,-25.9872 v 0 a 25.986819,25.986814 0 0 1 25.98677,-25.9873 h 51.97362 a 25.986819,25.986814 0 0 1 25.98688,25.9873 z m -52.72922,-15.9351 a 15.991889,15.991886 0 1 0 0,31.9815 15.991889,15.991886 0 1 0 0,-31.9815 z"
         fill="#f7bd13"
         stroke="none"
         stroke-width="9.99493" />
      <path
         gorn="0.4.0.9"
         id="path459"
         d="m 1004.0845,1254.172 a 26.000028,25.986814 0 0 1 -26.00008,25.9873 H 926.0844 a 26.000028,25.986814 0 0 1 -25.99997,-25.9873 v 0 a 26.000028,25.986814 0 0 1 25.99997,-25.9873 h 52.00002 a 26.000028,25.986814 0 0 1 26.00008,25.9873 z m -52.75602,-15.935 a 16.000938,15.992806 0 1 0 0,31.9856 16.000938,15.992806 0 1 0 0,-31.9856 z"
         fill="#f7bd13"
         stroke="none"
         stroke-width="9.99493" />
      <path
         gorn="0.4.0.11"
         id="path479"
         d="m 1004.0317,1154.172 a 25.986819,25.986814 0 0 1 -25.98688,25.9872 H 926.0712 a 25.986819,25.986814 0 0 1 -25.98677,-25.9872 v 0 a 25.986819,25.986814 0 0 1 25.98677,-25.9873 h 51.97362 a 25.986819,25.986814 0 0 1 25.98688,25.9873 z m -52.72922,-15.935 a 15.992809,15.992806 0 1 0 0,31.9856 15.992809,15.992806 0 1 0 0,-31.9856 z"
         fill="#f7bd13"
         stroke="none"
         stroke-width="9.99493" />
      <path
         gorn="0.4.0.13"
         id="path481"
         d="m 1004.0317,1054.1719 a 25.986819,25.986814 0 0 1 -25.98688,25.9873 H 926.0712 a 25.986819,25.986814 0 0 1 -25.98677,-25.9873 v 0 a 25.986819,25.986814 0 0 1 25.98677,-25.9873 h 51.97362 a 25.986819,25.986814 0 0 1 25.98688,25.9873 z m -52.72922,-15.935 a 15.992809,15.992806 0 1 0 0,31.9856 15.992809,15.992806 0 1 0 0,-31.9856 z"
         fill="#f7bd13"
         stroke="none"
         stroke-width="9.99493" />
      <path
         gorn="0.4.0.15"
         id="path485"
         d="m 1004.0846,954.17204 a 26.000005,25.986814 0 0 1 -26.00008,25.9872 H 926.0845 a 26.000005,25.986814 0 0 1 -26.00007,-25.9872 v 0 a 26.000005,25.986814 0 0 1 26.00007,-25.98322 h 52.00002 a 26.000005,25.986814 0 0 1 26.00008,25.98322 z m -52.75612,-15.93508 a 16.000968,15.99285 0 1 0 0,31.98568 16.000968,15.99285 0 1 0 0,-31.98568 z"
         fill="#f7bd13"
         stroke="none"
         stroke-width="9.99493" />
      <path
         gorn="0.4.0.17"
         id="path483"
         d="m 1004.0318,854.17604 a 25.986819,25.986814 0 0 1 -25.98688,25.98315 H 926.0713 a 25.986819,25.986814 0 0 1 -25.98687,-25.98315 v 0 a 25.986819,25.986814 0 0 1 25.98687,-25.98727 h 51.97362 a 25.986819,25.986814 0 0 1 25.98688,25.98727 z m -52.72932,-15.93913 a 15.992809,15.992806 0 1 0 0,31.98561 15.992809,15.992806 0 1 0 0,-31.98561 z"
         fill="#f7bd13"
         stroke="none"
         stroke-width="9.99493" />
      <path
         gorn="0.4.0.19"
         id="path469"
         d="m 1004.0318,754.17187 a 25.986819,25.986814 0 0 1 -25.98688,25.98728 H 926.0713 a 25.986819,25.986814 0 0 1 -25.98687,-25.98728 v 0 a 25.986819,25.986814 0 0 1 25.98687,-25.98728 h 51.97362 a 25.986819,25.986814 0 0 1 25.98688,25.98728 z m -52.72932,-15.93914 a 15.992809,15.992806 0 1 0 0,31.98561 15.992809,15.992806 0 1 0 0,-31.98561 z"
         fill="#f7bd13"
         stroke="none"
         stroke-width="9.99493" />
      <path
         gorn="0.4.0.21"
         id="path457"
         d="m 1004.0318,654.17184 a 25.986819,25.986814 0 0 1 -25.98688,25.98728 H 926.0713 a 25.986819,25.986814 0 0 1 -25.98687,-25.98728 v 0 a 25.986819,25.986814 0 0 1 25.98687,-25.98727 h 51.97362 a 25.986819,25.986814 0 0 1 25.98688,25.98727 z M 951.30248,638.2327 a 15.992813,15.99281 0 1 0 0,31.98562 15.992813,15.99281 0 1 0 0,-31.98562 z"
         fill="#f7bd13"
         stroke="none"
         stroke-width="9.99493" />
      <path
         gorn="0.4.0.23"
         id="path477"
         d="m 1004.0846,554.1718 a 26.000005,25.986814 0 0 1 -26.00008,25.98728 H 926.0845 A 26.000005,25.986814 0 0 1 900.08443,554.1718 v 0 a 26.000005,25.986814 0 0 1 26.00007,-25.98728 h 52.00002 a 26.000005,25.986814 0 0 1 26.00008,25.98728 z m -52.75612,-15.93501 a 16.000003,15.991886 0 1 0 0,31.97735 16.000003,15.991886 0 1 0 0,-31.97735 z"
         fill="#f7bd13"
         stroke="none"
         stroke-width="9.99493" />
      <path
         gorn="0.4.0.25"
         id="path475"
         d="m 1004.0318,454.17176 a 25.986819,25.986814 0 0 1 -25.98688,25.98728 H 926.0713 a 25.986819,25.986814 0 0 1 -25.98687,-25.98728 v 0 a 25.986819,25.986814 0 0 1 25.98687,-25.98727 h 51.97362 a 25.986819,25.986814 0 0 1 25.98688,25.98727 z m -52.72932,-15.93501 a 15.991889,15.991886 0 1 0 0,31.98149 15.991889,15.991886 0 1 0 0,-31.98149 z"
         fill="#f7bd13"
         stroke="none"
         stroke-width="9.99493" />
      <path
         gorn="0.4.0.27"
         id="path473"
         d="M 1004.0846,354.17172 A 26.000005,25.986814 0 0 1 978.08452,380.159 H 926.0845 a 26.000005,25.986814 0 0 1 -26.00007,-25.98728 v 0 a 26.000005,25.986814 0 0 1 26.00007,-25.98728 h 52.00002 a 26.000005,25.986814 0 0 1 26.00008,25.98728 z m -52.75612,-15.93501 a 16.000003,15.991886 0 1 0 0,31.98148 16.000003,15.991886 0 1 0 0,-31.98148 z"
         fill="#f7bd13"
         stroke="none"
         stroke-width="9.99493" />
      <path
         gorn="0.4.0.29"
         id="path471"
         d="m 1004.0318,254.17169 a 25.986819,25.986814 0 0 1 -25.98688,25.98728 H 926.0713 a 25.986819,25.986814 0 0 1 -25.98687,-25.98728 v 0 a 25.986819,25.986814 0 0 1 25.98687,-25.98727 h 51.97362 a 25.986819,25.986814 0 0 1 25.98688,25.98727 z m -52.72932,-15.93501 a 15.991889,15.991886 0 1 0 0,31.98149 15.991889,15.991886 0 1 0 0,-31.98149 z"
         fill="#f7bd13"
         stroke="none"
         stroke-width="9.99493" />
      <path
         gorn="0.4.0.31"
         id="path425"
         d="M 104.97179,254.17169 A 25.986819,25.986814 0 0 1 78.984978,280.15897 H 27.011339 A 25.986819,25.986814 0 0 1 1.024516,254.17169 v 0 a 25.986819,25.986814 0 0 1 25.986823,-25.98727 h 51.973639 a 25.986819,25.986814 0 0 1 25.986812,25.98727 z M 53.029639,238.24494 a 15.991889,15.991886 0 1 0 0,31.98148 15.991889,15.991886 0 1 0 0,-31.98148 z"
         fill="#f7bd13"
         stroke="none"
         stroke-width="9.99493" />
      <path
         gorn="0.4.0.33"
         id="path431"
         d="M 104.97179,354.17172 A 25.986819,25.986814 0 0 1 78.984978,380.159 H 27.011339 A 25.986819,25.986814 0 0 1 1.024516,354.17172 v 0 a 25.986819,25.986814 0 0 1 25.986823,-25.98728 h 51.973639 a 25.986819,25.986814 0 0 1 25.986812,25.98728 z M 53.029639,338.23671 a 15.991889,15.991886 0 1 0 0,31.98148 15.991889,15.991886 0 1 0 0,-31.98148 z"
         fill="#f7bd13"
         stroke="none"
         stroke-width="9.99493" />
      <path
         gorn="0.4.0.35"
         id="path433"
         d="M 104.97179,454.17176 A 25.986819,25.986814 0 0 1 78.984978,480.15904 H 27.011339 A 25.986819,25.986814 0 0 1 1.024516,454.17176 v 0 a 25.986819,25.986814 0 0 1 25.986823,-25.98727 h 51.973639 a 25.986819,25.986814 0 0 1 25.986812,25.98727 z M 53.029639,438.23675 a 15.991889,15.991886 0 1 0 0,31.98149 15.991889,15.991886 0 1 0 0,-31.98149 z"
         fill="#f7bd13"
         stroke="none"
         stroke-width="9.99493" />
      <path
         gorn="0.4.0.37"
         id="path435"
         d="M 104.97179,554.1718 A 25.986819,25.986814 0 0 1 78.984978,580.15908 H 27.011339 A 25.986819,25.986814 0 0 1 1.024516,554.1718 v 0 A 25.986819,25.986814 0 0 1 27.011339,528.18452 H 78.984978 A 25.986819,25.986814 0 0 1 104.97179,554.1718 Z M 53.029639,538.23679 a 15.991889,15.991886 0 1 0 0,31.97735 15.991889,15.991886 0 1 0 0,-31.97735 z"
         fill="#f7bd13"
         stroke="none"
         stroke-width="9.99493" />
      <path
         gorn="0.4.0.39"
         id="path437"
         d="M 103.94727,654.17184 A 25.986819,25.986814 0 0 1 77.960458,680.15912 H 25.986819 A 25.986819,25.986814 0 0 1 0,654.17184 v 0 a 25.986819,25.986814 0 0 1 25.986819,-25.98727 h 51.973639 a 25.986819,25.986814 0 0 1 25.986812,25.98727 z M 52.005119,638.2327 a 15.992813,15.99281 0 1 0 0,31.98562 15.992813,15.99281 0 1 0 0,-31.98562 z"
         fill="#f7bd13"
         stroke="none"
         stroke-width="9.99493" />
      <path
         gorn="0.4.0.41"
         id="path439"
         d="M 104.97179,754.17187 A 25.986819,25.986814 0 0 1 78.984978,780.15915 H 27.011339 A 25.986819,25.986814 0 0 1 1.024516,754.17187 v 0 a 25.986819,25.986814 0 0 1 25.986823,-25.98728 h 51.973639 a 25.986819,25.986814 0 0 1 25.986812,25.98728 z M 53.029639,738.23273 a 15.992809,15.992806 0 1 0 0,31.98561 15.992809,15.992806 0 1 0 0,-31.98561 z"
         fill="#f7bd13"
         stroke="none"
         stroke-width="9.99493" />
      <path
         gorn="0.4.0.43"
         id="path441"
         d="M 104.97179,854.17604 A 25.986819,25.986814 0 0 1 78.984978,880.15919 H 27.011339 A 25.986819,25.986814 0 0 1 1.024516,854.17604 v 0 a 25.986819,25.986814 0 0 1 25.986823,-25.98727 h 51.973639 a 25.986819,25.986814 0 0 1 25.986812,25.98727 z M 53.029639,838.23691 a 15.992809,15.992806 0 1 0 0,31.98561 15.992809,15.992806 0 1 0 0,-31.98561 z"
         fill="#f7bd13"
         stroke="none"
         stroke-width="9.99493" />
      <path
         gorn="0.4.0.45"
         id="path443"
         d="m 104.97179,954.17204 a 25.986819,25.986814 0 0 1 -25.986812,25.9872 H 27.011339 A 25.986819,25.986814 0 0 1 1.024516,954.17204 v 0 a 25.986819,25.986814 0 0 1 25.986823,-25.98322 h 51.973639 a 25.986819,25.986814 0 0 1 25.986812,25.98322 z M 53.029639,938.23696 a 15.992853,15.99285 0 1 0 0,31.98568 15.992853,15.99285 0 1 0 0,-31.98568 z"
         fill="#f7bd13"
         stroke="none"
         stroke-width="9.99493" />
      <path
         gorn="0.4.0.47"
         id="path445"
         d="m 104.96785,1054.1719 a 25.986819,25.986814 0 0 1 -25.986812,25.9873 H 27.007409 A 25.986819,25.986814 0 0 1 1.020585,1054.1719 v 0 a 25.986819,25.986814 0 0 1 25.986824,-25.9873 h 51.973639 a 25.986819,25.986814 0 0 1 25.986802,25.9873 z m -51.942151,-15.9267 a 15.992504,15.992501 0 1 0 0,31.9814 15.992504,15.992501 0 1 0 0,-31.9814 z"
         fill="#f7bd13"
         stroke="none"
         stroke-width="9.99493" />
      <path
         gorn="0.4.0.49"
         id="path447"
         d="m 104.96785,1154.172 a 25.986819,25.986814 0 0 1 -25.986812,25.9872 H 27.007409 A 25.986819,25.986814 0 0 1 1.020585,1154.172 v 0 a 25.986819,25.986814 0 0 1 25.986824,-25.9873 h 51.973639 a 25.986819,25.986814 0 0 1 25.986802,25.9873 z m -51.942151,-15.935 a 15.992809,15.992806 0 1 0 0,31.9856 15.992809,15.992806 0 1 0 0,-31.9856 z"
         fill="#f7bd13"
         stroke="none"
         stroke-width="9.99493" />
      <path
         gorn="0.4.0.51"
         id="path449"
         d="m 104.96785,1254.172 a 25.986819,25.986814 0 0 1 -25.986812,25.9873 H 27.007409 A 25.986819,25.986814 0 0 1 1.020585,1254.172 v 0 a 25.986819,25.986814 0 0 1 25.986824,-25.9873 h 51.973639 a 25.986819,25.986814 0 0 1 25.986802,25.9873 z m -51.942151,-15.935 a 15.992809,15.992806 0 1 0 0,31.9856 15.992809,15.992806 0 1 0 0,-31.9856 z"
         fill="#f7bd13"
         stroke="none"
         stroke-width="9.99493" />
      <path
         gorn="0.4.0.53"
         id="path451"
         d="m 104.96785,1354.1721 a 25.986819,25.986814 0 0 1 -25.986812,25.9872 H 27.007409 A 25.986819,25.986814 0 0 1 1.020585,1354.1721 v 0 a 25.986819,25.986814 0 0 1 25.986824,-25.9873 h 51.973639 a 25.986819,25.986814 0 0 1 25.986802,25.9873 z M 53.025699,1338.237 a 15.991889,15.991886 0 1 0 0,31.9815 15.991889,15.991886 0 1 0 0,-31.9815 z"
         fill="#f7bd13"
         stroke="none"
         stroke-width="9.99493" />
      <path
         gorn="0.4.0.55"
         id="path455"
         d="m 104.96785,1454.1721 a 25.986819,25.986814 0 0 1 -25.986812,25.9873 H 27.007409 A 25.986819,25.986814 0 0 1 1.020585,1454.1721 v 0 a 25.986819,25.986814 0 0 1 25.986824,-25.9872 h 51.973639 a 25.986819,25.986814 0 0 1 25.986802,25.9872 z M 53.025699,1438.233 a 15.991889,15.991886 0 1 0 0,31.9815 15.991889,15.991886 0 1 0 0,-31.9815 z"
         fill="#f7bd13"
         stroke="none"
         stroke-width="9.99493" />
      <path
         gorn="0.4.0.57"
         id="path453"
         d="m 104.96785,1554.1721 a 25.986819,25.986814 0 0 1 -25.986812,25.9873 H 27.007409 A 25.986819,25.986814 0 0 1 1.020585,1554.1721 v 0 a 25.986819,25.986814 0 0 1 25.986824,-25.9873 h 51.973639 a 25.986819,25.986814 0 0 1 25.986802,25.9873 z m -51.942151,-15.935 a 15.991889,15.991886 0 1 0 0,31.9814 15.991889,15.991886 0 1 0 0,-31.9814 z"
         fill="#f7bd13"
         stroke="none"
         stroke-width="9.99493" />
      <path
         gorn="0.4.0.59"
         id="path463"
         d="m 104.96785,1654.1721 a 25.986819,25.986814 0 0 1 -25.986812,25.9873 H 27.007409 A 25.986819,25.986814 0 0 1 1.020585,1654.1721 v 0 a 25.986819,25.986814 0 0 1 25.986824,-25.9873 h 51.973639 a 25.986819,25.986814 0 0 1 25.986802,25.9873 z M 53.025699,1638.233 a 15.992809,15.992806 0 1 0 0,31.9856 15.992809,15.992806 0 1 0 0,-31.9856 z"
         fill="#f7bd13"
         stroke="none"
         stroke-width="9.99493" />
      <circle
         gorn="0.4.0.0"
         cy="1654.1594"
         cx="953.08447"
         id="connector0pin"
         r="22.5"
         fill="none"
         stroke="#f7bd13"
         stroke-width="7" />
      <circle
         gorn="0.4.0.2"
         cy="1554.1594"
         cx="953.08447"
         id="connector1pin"
         r="22.5"
         fill="none"
         stroke="#f7bd13"
         stroke-width="7" />
      <circle
         r="22.5"
         gorn="0.4.0.4"
         cy="1454.1593"
         cx="953.08447"
         id="connector2pin"
         fill="none"
         stroke="#f7bd13"
         stroke-width="7" />
      <circle
         gorn="0.4.0.6"
         cy="1354.1593"
         cx="953.08447"
         id="connector3pin"
         r="22.5"
         fill="none"
         stroke="#f7bd13"
         stroke-width="7" />
      <circle
         r="22.5"
         gorn="0.4.0.8"
         cy="1254.1593"
         cx="953.08447"
         id="connector4pin"
         fill="none"
         stroke="#f7bd13"
         stroke-width="7" />
      <circle
         gorn="0.4.0.10"
         cy="1154.1592"
         cx="953.08447"
         id="connector5pin"
         r="22.5"
         fill="none"
         stroke="#f7bd13"
         stroke-width="7" />
      <circle
         r="22.5"
         gorn="0.4.0.12"
         cy="1054.1592"
         cx="953.08447"
         id="connector6pin"
         fill="none"
         stroke="#f7bd13"
         stroke-width="7" />
      <circle
         gorn="0.4.0.14"
         cy="954.15912"
         cx="953.08447"
         id="connector7pin"
         r="22.5"
         fill="none"
         stroke="#f7bd13"
         stroke-width="7" />
      <circle
         r="22.5"
         gorn="0.4.0.16"
         cy="854.15918"
         cx="953.08447"
         id="connector8pin"
         fill="none"
         stroke="#f7bd13"
         stroke-width="7" />
      <circle
         gorn="0.4.0.18"
         cy="754.15912"
         cx="953.08447"
         id="connector9pin"
         r="22.5"
         fill="none"
         stroke="#f7bd13"
         stroke-width="7" />
      <circle
         gorn="0.4.0.20"
         cy="654.15912"
         cx="953.08447"
         id="connector10pin"
         r="22.5"
         fill="none"
         stroke="#f7bd13"
         stroke-width="7" />
      <circle
         r="22.5"
         gorn="0.4.0.22"
         cy="554.15906"
         cx="953.08447"
         id="connector11pin"
         fill="none"
         stroke="#f7bd13"
         stroke-width="7" />
      <circle
         gorn="0.4.0.24"
         cy="454.15906"
         cx="953.08447"
         id="connector12pin"
         r="22.5"
         fill="none"
         stroke="#f7bd13"
         stroke-width="7" />
      <circle
         r="22.5"
         gorn="0.4.0.26"
         cy="354.15903"
         cx="953.08447"
         id="connector13pin"
         fill="none"
         stroke="#f7bd13"
         stroke-width="7" />
      <ellipse
         gorn="0.4.0.28"
         cy="254.15895"
         cx="953.08447"
         id="connector14pin"
         fill="none"
         stroke="#f7bd13"
         stroke-width="7"
         rx="22.000008"
         ry="22.5" />
      <circle
         gorn="0.4.0.30"
         cy="254.15895"
         cx="51.563419"
         id="connector15pin"
         r="22.5"
         fill="none"
         stroke="#f7bd13"
         stroke-width="7" />
      <circle
         gorn="0.4.0.32"
         cy="354.15903"
         cx="51.563419"
         id="connector16pin"
         r="22.5"
         fill="none"
         stroke="#f7bd13"
         stroke-width="7" />
      <circle
         gorn="0.4.0.34"
         cy="454.15906"
         cx="51.563419"
         id="connector17pin"
         r="22.5"
         fill="none"
         stroke="#f7bd13"
         stroke-width="7" />
      <circle
         gorn="0.4.0.36"
         cy="554.15906"
         cx="51.563419"
         id="connector18pin"
         r="22.5"
         fill="none"
         stroke="#f7bd13"
         stroke-width="7" />
      <circle
         gorn="0.4.0.38"
         cy="654.15912"
         cx="51.563419"
         id="connector19pin"
         r="22.5"
         fill="none"
         stroke="#f7bd13"
         stroke-width="7" />
      <circle
         gorn="0.4.0.40"
         cy="754.15912"
         cx="51.563419"
         id="connector20pin"
         r="22.5"
         fill="none"
         stroke="#f7bd13"
         stroke-width="7" />
      <circle
         gorn="0.4.0.42"
         cy="854.15918"
         cx="51.563419"
         id="connector21pin"
         r="22.5"
         fill="none"
         stroke="#f7bd13"
         stroke-width="7" />
      <circle
         gorn="0.4.0.44"
         cy="954.15912"
         cx="51.563419"
         id="connector22pin"
         r="22.5"
         fill="none"
         stroke="#f7bd13"
         stroke-width="7" />
      <circle
         gorn="0.4.0.46"
         cy="1054.1592"
         cx="51.563419"
         id="connector23pin"
         r="22.5"
         fill="none"
         stroke="#f7bd13"
         stroke-width="7" />
      <circle
         gorn="0.4.0.48"
         cy="1154.1592"
         cx="51.563419"
         id="connector24pin"
         r="22.5"
         fill="none"
         stroke="#f7bd13"
         stroke-width="7" />
      <circle
         gorn="0.4.0.50"
         cy="1254.1593"
         cx="51.563419"
         id="connector25pin"
         r="22.5"
         fill="none"
         stroke="#f7bd13"
         stroke-width="7" />
      <circle
         gorn="0.4.0.52"
         cy="1354.1593"
         cx="51.563419"
         id="connector26pin"
         r="22.5"
         fill="none"
         stroke="#f7bd13"
         stroke-width="7" />
      <circle
         gorn="0.4.0.54"
         cy="1454.1593"
         cx="51.563419"
         id="connector27pin"
         r="22.5"
         fill="none"
         stroke="#f7bd13"
         stroke-width="7" />
      <circle
         gorn="0.4.0.56"
         cy="1554.1594"
         cx="51.566196"
         id="connector28pin"
         r="22.5"
         fill="none"
         stroke="#f7bd13"
         stroke-width="7" />
      <circle
         gorn="0.4.0.58"
         cy="1654.1594"
         cx="51.563419"
         id="connector29pin"
         r="22.5"
         fill="none"
         stroke="#f7bd13"
         stroke-width="7" />
    </g>
  </g>
</svg>
