<?xml version="1.0" encoding="UTF-8" standalone="no"?>
<!-- Created with Fritzing (https://fritzing.org/) -->

<svg
   version="1.2"
   x="0in"
   y="0in"
   width="1.0075513in"
   height="1.7137074in"
   viewBox="0 0 72.54364 123.38706"
   id="svg5831"
   sodipodi:docname="ESP32-C3-DevkitC-02-PCB.svg"
   inkscape:version="1.1.1 (3bf5ae0d25, 2021-09-20)"
   xmlns:inkscape="http://www.inkscape.org/namespaces/inkscape"
   xmlns:sodipodi="http://sodipodi.sourceforge.net/DTD/sodipodi-0.dtd"
   xmlns="http://www.w3.org/2000/svg"
   xmlns:svg="http://www.w3.org/2000/svg">
  <defs
     id="defs5835" />
  <sodipodi:namedview
     id="namedview5833"
     pagecolor="#ffffff"
     bordercolor="#cccccc"
     borderopacity="1"
     inkscape:pageshadow="0"
     inkscape:pageopacity="1"
     inkscape:pagecheckerboard="0"
     inkscape:document-units="in"
     showgrid="false"
     inkscape:lockguides="true"
     inkscape:zoom="4.3167435"
     inkscape:cx="53.165077"
     inkscape:cy="75.288235"
     inkscape:window-width="1500"
     inkscape:window-height="938"
     inkscape:window-x="-6"
     inkscape:window-y="-6"
     inkscape:window-maximized="1"
     inkscape:current-layer="svg5831" />
  <g
     partID="855511690"
     id="g5697"
     transform="matrix(0.90696529,0,0,1.0000009,-6.9724178e-5,0.01316737)">
    <g
       id="copper0"
       gorn="0.4.0">
      <path
         stroke="none"
         fill="#f7bd13"
         id="path423"
         stroke-width="0.719635"
         d="m 79.3756,119.1 a 1.87105,1.87105 0 0 1 -1.87105,1.87108 h -3.7421 A 1.87105,1.87105 0 0 1 71.8914,119.1 v 0 a 1.87105,1.87105 0 0 1 1.87105,-1.87108 h 3.7421 A 1.87105,1.87105 0 0 1 79.3756,119.1 Z m -3.79649,-1.14761 a 1.15148,1.15148 0 1 0 0,2.30296 1.15148,1.15148 0 1 0 0,-2.30296 z"
         gorn="0.4.0.0" />
      <path
         stroke="none"
         fill="#f7bd13"
         id="path467"
         stroke-width="0.719635"
         d="m 79.3814,111.9 a 1.87105,1.87105 0 0 1 -1.87105,1.87108 h -3.7421 A 1.87105,1.87105 0 0 1 71.8972,111.9 v 0 a 1.87105,1.87105 0 0 1 1.87105,-1.87108 h 3.7421 A 1.87105,1.87105 0 0 1 79.3814,111.9 Z m -3.79649,-1.14732 a 1.15142,1.15142 0 1 0 0,2.30266 1.15142,1.15142 0 1 0 0,-2.30266 z"
         gorn="0.4.0.1" />
      <path
         stroke="none"
         fill="#f7bd13"
         id="path13574-4"
         stroke-width="0.719635"
         d="m 79.3857,104.7 a 1.872,1.87105 0 0 1 -1.872,1.87108 h -3.744 A 1.872,1.87105 0 0 1 71.8977,104.7 v 0 a 1.872,1.87105 0 0 1 1.872,-1.87108 h 3.744 a 1.872,1.87105 0 0 1 1.872,1.87108 z m -3.79842,-1.14761 a 1.152,1.15142 0 1 0 0,2.30267 1.152,1.15142 0 1 0 0,-2.30267 z"
         gorn="0.4.0.2" />
      <path
         stroke="none"
         fill="#f7bd13"
         id="path461"
         stroke-width="0.719635"
         d="m 79.3814,97.5002 a 1.87105,1.87105 0 0 1 -1.87105,1.87108 h -3.7421 A 1.87105,1.87105 0 0 1 71.8972,97.5002 v 0 a 1.87105,1.87105 0 0 1 1.87105,-1.87108 h 3.7421 a 1.87105,1.87105 0 0 1 1.87105,1.87108 z m -3.79649,-1.14733 a 1.15142,1.15142 0 1 0 0,2.30267 1.15142,1.15142 0 1 0 0,-2.30267 z"
         gorn="0.4.0.3" />
      <path
         stroke="none"
         fill="#f7bd13"
         id="path459"
         stroke-width="0.719635"
         d="m 79.3857,90.3002 a 1.872,1.87105 0 0 1 -1.872,1.87108 h -3.744 a 1.872,1.87105 0 0 1 -1.872,-1.87108 v 0 a 1.872,1.87105 0 0 1 1.872,-1.87108 h 3.744 a 1.872,1.87105 0 0 1 1.872,1.87108 z m -3.79842,-1.14732 a 1.15206,1.15148 0 1 0 0,2.30296 1.15206,1.15148 0 1 0 0,-2.30296 z"
         gorn="0.4.0.4" />
      <path
         stroke="none"
         fill="#f7bd13"
         id="path479"
         stroke-width="0.719635"
         d="m 79.3814,83.1002 a 1.87105,1.87105 0 0 1 -1.87105,1.87108 h -3.7421 A 1.87105,1.87105 0 0 1 71.8972,83.1002 v 0 a 1.87105,1.87105 0 0 1 1.87105,-1.87108 h 3.7421 a 1.87105,1.87105 0 0 1 1.87105,1.87108 z m -3.79649,-1.14732 a 1.15148,1.15148 0 1 0 0,2.30296 1.15148,1.15148 0 1 0 0,-2.30296 z"
         gorn="0.4.0.5" />
      <path
         stroke="none"
         fill="#f7bd13"
         id="path481"
         stroke-width="0.719635"
         d="m 79.3814,75.9002 a 1.87105,1.87105 0 0 1 -1.87105,1.87108 h -3.7421 A 1.87105,1.87105 0 0 1 71.8972,75.9002 v 0 a 1.87105,1.87105 0 0 1 1.87105,-1.87108 h 3.7421 a 1.87105,1.87105 0 0 1 1.87105,1.87108 z m -3.79649,-1.14732 a 1.15148,1.15148 0 1 0 0,2.30296 1.15148,1.15148 0 1 0 0,-2.30296 z"
         gorn="0.4.0.6" />
      <path
         stroke="none"
         fill="#f7bd13"
         id="path485"
         stroke-width="0.719635"
         d="m 79.3857,68.7004 a 1.872,1.87105 0 0 1 -1.872,1.87108 h -3.744 A 1.872,1.87105 0 0 1 71.89769,68.7004 v 0 a 1.872,1.87105 0 0 1 1.87201,-1.87079 h 3.744 a 1.872,1.87105 0 0 1 1.872,1.87079 z m -3.79843,-1.14733 a 1.15207,1.15149 0 1 0 0,2.30297 1.15207,1.15149 0 1 0 0,-2.30297 z"
         gorn="0.4.0.7" />
      <path
         stroke="none"
         fill="#f7bd13"
         id="path483"
         stroke-width="0.719635"
         d="m 79.3814,61.5007 a 1.87105,1.87105 0 0 1 -1.87105,1.87078 h -3.7421 A 1.87105,1.87105 0 0 1 71.89719,61.5007 v 0 a 1.87105,1.87105 0 0 1 1.87106,-1.87108 h 3.7421 a 1.87105,1.87105 0 0 1 1.87105,1.87108 z m -3.7965,-1.14761 a 1.15148,1.15148 0 1 0 0,2.30296 1.15148,1.15148 0 1 0 0,-2.30296 z"
         gorn="0.4.0.8" />
      <path
         stroke="none"
         fill="#f7bd13"
         id="path469"
         stroke-width="0.719635"
         d="m 79.3814,54.3004 a 1.87105,1.87105 0 0 1 -1.87105,1.87108 h -3.7421 A 1.87105,1.87105 0 0 1 71.89719,54.3004 v 0 a 1.87105,1.87105 0 0 1 1.87106,-1.87108 h 3.7421 a 1.87105,1.87105 0 0 1 1.87105,1.87108 z m -3.7965,-1.14761 a 1.15148,1.15148 0 1 0 0,2.30296 1.15148,1.15148 0 1 0 0,-2.30296 z"
         gorn="0.4.0.9" />
      <path
         stroke="none"
         fill="#f7bd13"
         id="path457"
         stroke-width="0.719635"
         d="m 79.3814,47.1004 a 1.87105,1.87105 0 0 1 -1.87105,1.87108 h -3.7421 A 1.87105,1.87105 0 0 1 71.89719,47.1004 v 0 a 1.87105,1.87105 0 0 1 1.87106,-1.87108 h 3.7421 a 1.87105,1.87105 0 0 1 1.87105,1.87108 z m -3.7965,-1.14761 a 1.15148,1.15148 0 1 0 0,2.30296 1.15148,1.15148 0 1 0 0,-2.30296 z"
         gorn="0.4.0.10" />
      <path
         stroke="none"
         fill="#f7bd13"
         id="path477"
         stroke-width="0.719635"
         d="m 79.3857,39.9004 a 1.872,1.87105 0 0 1 -1.872,1.87108 h -3.744 A 1.872,1.87105 0 0 1 71.8975,39.9004 v 0 a 1.872,1.87105 0 0 1 1.87201,-1.87108 h 3.744 a 1.872,1.87105 0 0 1 1.872,1.87108 z m -3.79843,-1.14732 a 1.152,1.15142 0 1 0 0,2.30237 1.152,1.15142 0 1 0 0,-2.30237 z"
         gorn="0.4.0.11" />
      <path
         stroke="none"
         fill="#f7bd13"
         id="path475"
         stroke-width="0.719635"
         d="m 79.3814,32.7004 a 1.87105,1.87105 0 0 1 -1.87105,1.87108 h -3.7421 A 1.87105,1.87105 0 0 1 71.89719,32.7004 v 0 a 1.87105,1.87105 0 0 1 1.87106,-1.87108 h 3.7421 a 1.87105,1.87105 0 0 1 1.87105,1.87108 z m -3.7965,-1.14732 a 1.15142,1.15142 0 1 0 0,2.30267 1.15142,1.15142 0 1 0 0,-2.30267 z"
         gorn="0.4.0.12" />
      <path
         stroke="none"
         fill="#f7bd13"
         id="path473"
         stroke-width="0.719635"
         d="m 79.3857,25.5004 a 1.872,1.87105 0 0 1 -1.872,1.87108 h -3.744 A 1.872,1.87105 0 0 1 71.89769,25.5004 v 0 a 1.872,1.87105 0 0 1 1.87201,-1.87108 h 3.744 a 1.872,1.87105 0 0 1 1.872,1.87108 z m -3.79843,-1.14732 a 1.152,1.15142 0 1 0 0,2.30267 1.152,1.15142 0 1 0 0,-2.30267 z"
         gorn="0.4.0.13" />
      <path
         stroke="none"
         fill="#f7bd13"
         id="path471"
         stroke-width="0.719635"
         d="m 79.3814,18.3004 a 1.87105,1.87105 0 0 1 -1.87105,1.87108 h -3.7421 A 1.87105,1.87105 0 0 1 71.89719,18.3004 v 0 a 1.87105,1.87105 0 0 1 1.87106,-1.87108 h 3.7421 a 1.87105,1.87105 0 0 1 1.87105,1.87108 z m -3.7965,-1.14732 a 1.15142,1.15142 0 1 0 0,2.30267 1.15142,1.15142 0 1 0 0,-2.30267 z"
         gorn="0.4.0.14" />
      <path
         stroke="none"
         fill="#f7bd13"
         id="path425"
         stroke-width="0.719635"
         d="m 7.55798,18.3004 a 1.87105,1.87105 0 0 1 -1.87106,1.871 H 1.94481 a 1.87105,1.87105 0 0 1 -1.8710446,-1.871 v 0 a 1.87105,1.87105 0 0 1 1.87105,-1.87108 h 3.7421 a 1.87105,1.87105 0 0 1 1.87105,1.87108 z M 3.81813,17.1536 a 1.15142,1.15142 0 1 0 0,2.30267 1.15142,1.15142 0 1 0 0,-2.30267 z"
         gorn="0.4.0.15" />
      <path
         stroke="none"
         fill="#f7bd13"
         id="path431"
         stroke-width="0.719635"
         d="m 7.55798,25.5004 a 1.87105,1.87105 0 0 1 -1.87106,1.871 H 1.94481 a 1.87105,1.87105 0 0 1 -1.8710446,-1.871 v 0 a 1.87105,1.87105 0 0 1 1.87105,-1.87108 h 3.7421 a 1.87105,1.87105 0 0 1 1.87105,1.87108 z M 3.81813,24.3531 a 1.15142,1.15142 0 1 0 0,2.30267 1.15142,1.15142 0 1 0 0,-2.30267 z"
         gorn="0.4.0.16" />
      <path
         stroke="none"
         fill="#f7bd13"
         id="path433"
         stroke-width="0.719635"
         d="m 7.55798,32.7004 a 1.87105,1.87105 0 0 1 -1.87106,1.871 H 1.94481 a 1.87105,1.87105 0 0 1 -1.8710446,-1.871 v 0 a 1.87105,1.87105 0 0 1 1.87105,-1.87108 h 3.7421 a 1.87105,1.87105 0 0 1 1.87105,1.87108 z M 3.81813,31.5531 a 1.15142,1.15142 0 1 0 0,2.30267 1.15142,1.15142 0 1 0 0,-2.30267 z"
         gorn="0.4.0.17" />
      <path
         stroke="none"
         fill="#f7bd13"
         id="path435"
         stroke-width="0.719635"
         d="m 7.55798,39.9004 a 1.87105,1.87105 0 0 1 -1.87106,1.871 H 1.94481 a 1.87105,1.87105 0 0 1 -1.8710446,-1.871 v 0 A 1.87105,1.87105 0 0 1 1.94481,38.0293 h 3.74211 a 1.87105,1.87105 0 0 1 1.87106,1.8711 z M 3.81813,38.7531 a 1.15142,1.15142 0 1 0 0,2.30237 1.15142,1.15142 0 1 0 0,-2.30237 z"
         gorn="0.4.0.18" />
      <path
         stroke="none"
         fill="#f7bd13"
         id="path437"
         stroke-width="0.719635"
         d="m 7.48418,47.1004 a 1.87105,1.87105 0 0 1 -1.87103,1.871 H 1.87105 A 1.87105,1.87105 0 0 1 0,47.1004 v 0 a 1.87105,1.87105 0 0 1 1.87105,-1.87108 h 3.7421 A 1.87105,1.87105 0 0 1 7.4842,47.1004 Z M 3.74437,45.9528 a 1.15148,1.15148 0 1 0 0,2.30296 1.15148,1.15148 0 1 0 0,-2.30296 z"
         gorn="0.4.0.19" />
      <path
         stroke="none"
         fill="#f7bd13"
         id="path439"
         stroke-width="0.719635"
         d="m 7.55798,54.3004 a 1.87105,1.87105 0 0 1 -1.87106,1.871 H 1.94481 a 1.87105,1.87105 0 0 1 -1.8710446,-1.871 v 0 a 1.87105,1.87105 0 0 1 1.87105,-1.87108 h 3.7421 a 1.87105,1.87105 0 0 1 1.87105,1.87108 z M 3.81813,53.1528 a 1.15148,1.15148 0 1 0 0,2.30296 1.15148,1.15148 0 1 0 0,-2.30296 z"
         gorn="0.4.0.20" />
      <path
         stroke="none"
         fill="#f7bd13"
         id="path441"
         stroke-width="0.719635"
         d="M 7.55798,61.5007 A 1.87105,1.87105 0 0 1 5.68692,63.3714 H 1.94481 A 1.87105,1.87105 0 0 1 0.0737654,61.5007 v 0 a 1.87105,1.87105 0 0 1 1.87105,-1.87108 h 3.7421 a 1.87105,1.87105 0 0 1 1.87105,1.87108 z M 3.81813,60.353 a 1.15148,1.15148 0 1 0 0,2.30296 1.15148,1.15148 0 1 0 0,-2.30296 z"
         gorn="0.4.0.21" />
      <path
         stroke="none"
         fill="#f7bd13"
         id="path443"
         stroke-width="0.719635"
         d="m 7.55798,68.7004 a 1.87105,1.87105 0 0 1 -1.87105,1.87108 l -3.74212,-8e-5 a 1.87105,1.87105 0 0 1 -1.8710446,-1.871 v 0 a 1.87105,1.87105 0 0 1 1.87105,-1.87079 h 3.7421 a 1.87105,1.87105 0 0 1 1.87105,1.87079 z M 3.81813,67.553 a 1.15149,1.15149 0 1 0 0,2.30297 1.15149,1.15149 0 1 0 0,-2.30297 z"
         gorn="0.4.0.22" />
      <path
         stroke="none"
         fill="#f7bd13"
         id="path445"
         stroke-width="0.719635"
         d="M 7.55769,75.9002 A 1.87105,1.87105 0 0 1 5.68664,77.77128 L 1.94453,77.7715 A 1.87105,1.87105 0 0 1 0.0734824,75.9002 v 0 a 1.87105,1.87105 0 0 1 1.87105,-1.87108 h 3.7421 a 1.87105,1.87105 0 0 1 1.87105,1.87108 z M 3.81785,74.75348 a 1.15146,1.15146 0 1 0 0,2.30266 1.15146,1.15146 0 1 0 0,-2.30266 z"
         gorn="0.4.0.23" />
      <path
         stroke="none"
         fill="#f7bd13"
         id="path447"
         stroke-width="0.719635"
         d="M 7.55769,83.1002 A 1.87105,1.87105 0 0 1 5.68664,84.97128 L 1.94453,84.9715 A 1.87105,1.87105 0 0 1 0.0734824,83.1002 v 0 a 1.87105,1.87105 0 0 1 1.87105,-1.87108 h 3.7421 a 1.87105,1.87105 0 0 1 1.87105,1.87108 z M 3.81785,81.95288 a 1.15148,1.15148 0 1 0 0,2.30296 1.15148,1.15148 0 1 0 0,-2.30296 z"
         gorn="0.4.0.24" />
      <path
         stroke="none"
         fill="#f7bd13"
         id="path449"
         stroke-width="0.719635"
         d="M 7.55769,90.3002 A 1.87105,1.87105 0 0 1 5.68664,92.17128 L 1.94453,92.1715 A 1.87105,1.87105 0 0 1 0.0734824,90.3002 v 0 a 1.87105,1.87105 0 0 1 1.87105,-1.87108 h 3.7421 a 1.87105,1.87105 0 0 1 1.87105,1.87108 z M 3.81785,89.15288 a 1.15148,1.15148 0 1 0 0,2.30296 1.15148,1.15148 0 1 0 0,-2.30296 z"
         gorn="0.4.0.25" />
      <path
         stroke="none"
         fill="#f7bd13"
         id="path451"
         stroke-width="0.719635"
         d="M 7.55769,97.5002 A 1.87105,1.87105 0 0 1 5.68664,99.37128 L 1.94453,99.3715 A 1.87105,1.87105 0 0 1 0.0734824,97.5002 v 0 a 1.87105,1.87105 0 0 1 1.87105,-1.87108 h 3.7421 a 1.87105,1.87105 0 0 1 1.87105,1.87108 z m -3.73984,-1.147 a 1.15142,1.15142 0 1 0 0,2.30267 1.15142,1.15142 0 1 0 0,-2.30267 z"
         gorn="0.4.0.26" />
      <path
         stroke="none"
         fill="#f7bd13"
         id="path455"
         stroke-width="0.719635"
         d="m 7.55769,104.7 a 1.87105,1.87105 0 0 1 -1.87105,1.87108 l -3.74211,-8e-5 A 1.87105,1.87105 0 0 1 0.0734824,104.7 v 0 a 1.87105,1.87105 0 0 1 1.87105,-1.87108 h 3.7421 a 1.87105,1.87105 0 0 1 1.87105,1.87108 z m -3.73984,-1.147 a 1.15142,1.15142 0 1 0 0,2.30267 1.15142,1.15142 0 1 0 0,-2.30267 z"
         gorn="0.4.0.27" />
      <path
         stroke="none"
         fill="#f7bd13"
         id="path453"
         stroke-width="0.719635"
         d="m 7.55769,111.9 a 1.87105,1.87105 0 0 1 -1.87105,1.87108 l -3.74211,-8e-5 A 1.87105,1.87105 0 0 1 0.0734824,111.9 v 0 a 1.87105,1.87105 0 0 1 1.87105,-1.87108 h 3.7421 a 1.87105,1.87105 0 0 1 1.87105,1.87108 z m -3.73984,-1.14732 a 1.15142,1.15142 0 1 0 0,2.30266 1.15142,1.15142 0 1 0 0,-2.30266 z"
         gorn="0.4.0.28" />
      <path
         stroke="none"
         fill="#f7bd13"
         id="path463"
         stroke-width="0.719635"
         d="m 7.55769,119.1 a 1.87105,1.87105 0 0 1 -1.87105,1.87108 l -3.74211,-8e-5 A 1.87105,1.87105 0 0 1 0.0734824,119.1 v 0 a 1.87105,1.87105 0 0 1 1.87105,-1.87108 h 3.7421 a 1.87105,1.87105 0 0 1 1.87105,1.87108 z m -3.73984,-1.147 a 1.15148,1.15148 0 1 0 0,2.30296 1.15148,1.15148 0 1 0 0,-2.30296 z"
         gorn="0.4.0.29" />
      <circle
         r="1.62"
         cy="119.099"
         stroke="#f7bd13"
         fill="none"
         id="connector0pin"
         stroke-width="0.504"
         cx="75.713501"
         gorn="0.4.0.30" />
      <circle
         r="1.62"
         cy="111.899"
         stroke="#f7bd13"
         fill="none"
         id="connector1pin"
         stroke-width="0.504"
         cx="75.713501"
         gorn="0.4.0.31" />
      <circle
         r="1.62"
         cy="104.699"
         stroke="#f7bd13"
         fill="none"
         id="connector2pin"
         stroke-width="0.504"
         cx="75.713501"
         gorn="0.4.0.32" />
      <circle
         r="1.62"
         cy="97.499397"
         stroke="#f7bd13"
         fill="none"
         id="connector3pin"
         stroke-width="0.504"
         cx="75.713501"
         gorn="0.4.0.33" />
      <circle
         r="1.62"
         cy="90.2994"
         stroke="#f7bd13"
         fill="none"
         id="connector4pin"
         stroke-width="0.504"
         cx="75.713501"
         gorn="0.4.0.34" />
      <circle
         r="1.62"
         cy="83.099403"
         stroke="#f7bd13"
         fill="none"
         id="connector5pin"
         stroke-width="0.504"
         cx="75.713501"
         gorn="0.4.0.35" />
      <circle
         r="1.62"
         cy="75.899399"
         stroke="#f7bd13"
         fill="none"
         id="connector6pin"
         stroke-width="0.504"
         cx="75.713501"
         gorn="0.4.0.36" />
      <circle
         r="1.62"
         cy="68.699402"
         stroke="#f7bd13"
         fill="none"
         id="connector7pin"
         stroke-width="0.504"
         cx="75.713501"
         gorn="0.4.0.37" />
      <circle
         r="1.62"
         cy="61.499401"
         stroke="#f7bd13"
         fill="none"
         id="connector8pin"
         stroke-width="0.504"
         cx="75.713501"
         gorn="0.4.0.38" />
      <circle
         r="1.62"
         cy="54.2994"
         stroke="#f7bd13"
         fill="none"
         id="connector9pin"
         stroke-width="0.504"
         cx="75.713501"
         gorn="0.4.0.39" />
      <circle
         r="1.62"
         cy="47.0994"
         stroke="#f7bd13"
         fill="none"
         id="connector10pin"
         stroke-width="0.504"
         cx="75.713501"
         gorn="0.4.0.40" />
      <circle
         r="1.62"
         cy="39.899399"
         stroke="#f7bd13"
         fill="none"
         id="connector11pin"
         stroke-width="0.504"
         cx="75.713501"
         gorn="0.4.0.41" />
      <circle
         r="1.62"
         cy="32.699402"
         stroke="#f7bd13"
         fill="none"
         id="connector12pin"
         stroke-width="0.504"
         cx="75.713501"
         gorn="0.4.0.42" />
      <circle
         r="1.62"
         cy="25.499399"
         stroke="#f7bd13"
         fill="none"
         id="connector13pin"
         stroke-width="0.504"
         cx="75.713501"
         gorn="0.4.0.43" />
      <circle
         r="1.62"
         cy="18.2994"
         stroke="#f7bd13"
         fill="none"
         id="connector14pin"
         stroke-width="0.504"
         cx="75.713501"
         gorn="0.4.0.44" />
      <circle
         r="1.62"
         cy="18.2994"
         stroke="#f7bd13"
         fill="none"
         id="connector15pin"
         stroke-width="0.504"
         cx="3.7125599"
         gorn="0.4.0.45" />
      <circle
         r="1.62"
         cy="25.499399"
         stroke="#f7bd13"
         fill="none"
         id="connector16pin"
         stroke-width="0.504"
         cx="3.7125599"
         gorn="0.4.0.46" />
      <circle
         r="1.62"
         cy="32.699402"
         stroke="#f7bd13"
         fill="none"
         id="connector17pin"
         stroke-width="0.504"
         cx="3.7125599"
         gorn="0.4.0.47" />
      <circle
         r="1.62"
         cy="39.899399"
         stroke="#f7bd13"
         fill="none"
         id="connector18pin"
         stroke-width="0.504"
         cx="3.7125599"
         gorn="0.4.0.48" />
      <circle
         r="1.62"
         cy="47.0994"
         stroke="#f7bd13"
         fill="none"
         id="connector19pin"
         stroke-width="0.504"
         cx="3.7125599"
         gorn="0.4.0.49" />
      <circle
         r="1.62"
         cy="54.2994"
         stroke="#f7bd13"
         fill="none"
         id="connector20pin"
         stroke-width="0.504"
         cx="3.7125599"
         gorn="0.4.0.50" />
      <circle
         r="1.62"
         cy="61.499401"
         stroke="#f7bd13"
         fill="none"
         id="connector21pin"
         stroke-width="0.504"
         cx="3.7125599"
         gorn="0.4.0.51" />
      <circle
         r="1.62"
         cy="68.699402"
         stroke="#f7bd13"
         fill="none"
         id="connector22pin"
         stroke-width="0.504"
         cx="3.7125599"
         gorn="0.4.0.52" />
      <circle
         r="1.62"
         cy="75.899399"
         stroke="#f7bd13"
         fill="none"
         id="connector23pin"
         stroke-width="0.504"
         cx="3.7125599"
         gorn="0.4.0.53" />
      <circle
         r="1.62"
         cy="83.099403"
         stroke="#f7bd13"
         fill="none"
         id="connector24pin"
         stroke-width="0.504"
         cx="3.7125599"
         gorn="0.4.0.54" />
      <circle
         r="1.62"
         cy="90.2994"
         stroke="#f7bd13"
         fill="none"
         id="connector25pin"
         stroke-width="0.504"
         cx="3.7125599"
         gorn="0.4.0.55" />
      <circle
         r="1.62"
         cy="97.499397"
         stroke="#f7bd13"
         fill="none"
         id="connector26pin"
         stroke-width="0.504"
         cx="3.7125599"
         gorn="0.4.0.56" />
      <circle
         r="1.62"
         cy="104.699"
         stroke="#f7bd13"
         fill="none"
         id="connector27pin"
         stroke-width="0.504"
         cx="3.7125599"
         gorn="0.4.0.57" />
      <circle
         r="1.62"
         cy="111.899"
         stroke="#f7bd13"
         fill="none"
         id="connector28pin"
         stroke-width="0.504"
         cx="3.71276"
         gorn="0.4.0.58" />
      <circle
         r="1.62"
         cy="119.099"
         stroke="#f7bd13"
         fill="none"
         id="connector29pin"
         stroke-width="0.504"
         cx="3.7125599"
         gorn="0.4.0.59" />
    </g>
  </g>
  <g
     partID="855511692"
     id="g5822"
     transform="translate(-6.9724178e-5,0.01327322)">
    <g
       id="copper1"
       gorn="0.4"
       transform="matrix(0.90696529,0,0,1.0000009,0,-1.0585334e-4)">
      <g
         id="g5819"
         gorn="0.4.0">
        <path
           stroke="none"
           fill="#f7bd13"
           id="path5699"
           stroke-width="0.719635"
           d="m 79.3756,119.1 a 1.87105,1.87105 0 0 1 -1.87105,1.87108 h -3.7421 A 1.87105,1.87105 0 0 1 71.8914,119.1 v 0 a 1.87105,1.87105 0 0 1 1.87105,-1.87108 h 3.7421 A 1.87105,1.87105 0 0 1 79.3756,119.1 Z m -3.79649,-1.14761 a 1.15148,1.15148 0 1 0 0,2.30296 1.15148,1.15148 0 1 0 0,-2.30296 z"
           gorn="0.4.0.0" />
        <path
           stroke="none"
           fill="#f7bd13"
           id="path5701"
           stroke-width="0.719635"
           d="m 79.3814,111.9 a 1.87105,1.87105 0 0 1 -1.87105,1.87108 h -3.7421 A 1.87105,1.87105 0 0 1 71.8972,111.9 v 0 a 1.87105,1.87105 0 0 1 1.87105,-1.87108 h 3.7421 A 1.87105,1.87105 0 0 1 79.3814,111.9 Z m -3.79649,-1.14732 a 1.15142,1.15142 0 1 0 0,2.30266 1.15142,1.15142 0 1 0 0,-2.30266 z"
           gorn="0.4.0.1" />
        <path
           stroke="none"
           fill="#f7bd13"
           id="path5703"
           stroke-width="0.719635"
           d="m 79.3857,104.7 a 1.872,1.87105 0 0 1 -1.872,1.87108 h -3.744 A 1.872,1.87105 0 0 1 71.8977,104.7 v 0 a 1.872,1.87105 0 0 1 1.872,-1.87108 h 3.744 a 1.872,1.87105 0 0 1 1.872,1.87108 z m -3.79842,-1.14761 a 1.152,1.15142 0 1 0 0,2.30267 1.152,1.15142 0 1 0 0,-2.30267 z"
           gorn="0.4.0.2" />
        <path
           stroke="none"
           fill="#f7bd13"
           id="path5705"
           stroke-width="0.719635"
           d="m 79.3814,97.5002 a 1.87105,1.87105 0 0 1 -1.87105,1.87108 h -3.7421 A 1.87105,1.87105 0 0 1 71.8972,97.5002 v 0 a 1.87105,1.87105 0 0 1 1.87105,-1.87108 h 3.7421 a 1.87105,1.87105 0 0 1 1.87105,1.87108 z m -3.79649,-1.14733 a 1.15142,1.15142 0 1 0 0,2.30267 1.15142,1.15142 0 1 0 0,-2.30267 z"
           gorn="0.4.0.3" />
        <path
           stroke="none"
           fill="#f7bd13"
           id="path5707"
           stroke-width="0.719635"
           d="m 79.3857,90.3002 a 1.872,1.87105 0 0 1 -1.872,1.87108 h -3.744 a 1.872,1.87105 0 0 1 -1.872,-1.87108 v 0 a 1.872,1.87105 0 0 1 1.872,-1.87108 h 3.744 a 1.872,1.87105 0 0 1 1.872,1.87108 z m -3.79842,-1.14732 a 1.15206,1.15148 0 1 0 0,2.30296 1.15206,1.15148 0 1 0 0,-2.30296 z"
           gorn="0.4.0.4" />
        <path
           stroke="none"
           fill="#f7bd13"
           id="path5709"
           stroke-width="0.719635"
           d="m 79.3814,83.1002 a 1.87105,1.87105 0 0 1 -1.87105,1.87108 h -3.7421 A 1.87105,1.87105 0 0 1 71.8972,83.1002 v 0 a 1.87105,1.87105 0 0 1 1.87105,-1.87108 h 3.7421 a 1.87105,1.87105 0 0 1 1.87105,1.87108 z m -3.79649,-1.14732 a 1.15148,1.15148 0 1 0 0,2.30296 1.15148,1.15148 0 1 0 0,-2.30296 z"
           gorn="0.4.0.5" />
        <path
           stroke="none"
           fill="#f7bd13"
           id="path5711"
           stroke-width="0.719635"
           d="m 79.3814,75.9002 a 1.87105,1.87105 0 0 1 -1.87105,1.87108 h -3.7421 A 1.87105,1.87105 0 0 1 71.8972,75.9002 v 0 a 1.87105,1.87105 0 0 1 1.87105,-1.87108 h 3.7421 a 1.87105,1.87105 0 0 1 1.87105,1.87108 z m -3.79649,-1.14732 a 1.15148,1.15148 0 1 0 0,2.30296 1.15148,1.15148 0 1 0 0,-2.30296 z"
           gorn="0.4.0.6" />
        <path
           stroke="none"
           fill="#f7bd13"
           id="path5713"
           stroke-width="0.719635"
           d="m 79.3857,68.7004 a 1.872,1.87105 0 0 1 -1.872,1.87108 h -3.744 A 1.872,1.87105 0 0 1 71.89769,68.7004 v 0 a 1.872,1.87105 0 0 1 1.87201,-1.87079 h 3.744 a 1.872,1.87105 0 0 1 1.872,1.87079 z m -3.79843,-1.14733 a 1.15207,1.15149 0 1 0 0,2.30297 1.15207,1.15149 0 1 0 0,-2.30297 z"
           gorn="0.4.0.7" />
        <path
           stroke="none"
           fill="#f7bd13"
           id="path5715"
           stroke-width="0.719635"
           d="m 79.3814,61.5007 a 1.87105,1.87105 0 0 1 -1.87105,1.87078 h -3.7421 A 1.87105,1.87105 0 0 1 71.89719,61.5007 v 0 a 1.87105,1.87105 0 0 1 1.87106,-1.87108 h 3.7421 a 1.87105,1.87105 0 0 1 1.87105,1.87108 z m -3.7965,-1.14761 a 1.15148,1.15148 0 1 0 0,2.30296 1.15148,1.15148 0 1 0 0,-2.30296 z"
           gorn="0.4.0.8" />
        <path
           stroke="none"
           fill="#f7bd13"
           id="path5717"
           stroke-width="0.719635"
           d="m 79.3814,54.3004 a 1.87105,1.87105 0 0 1 -1.87105,1.87108 h -3.7421 A 1.87105,1.87105 0 0 1 71.89719,54.3004 v 0 a 1.87105,1.87105 0 0 1 1.87106,-1.87108 h 3.7421 a 1.87105,1.87105 0 0 1 1.87105,1.87108 z m -3.7965,-1.14761 a 1.15148,1.15148 0 1 0 0,2.30296 1.15148,1.15148 0 1 0 0,-2.30296 z"
           gorn="0.4.0.9" />
        <path
           stroke="none"
           fill="#f7bd13"
           id="path5719"
           stroke-width="0.719635"
           d="m 79.3814,47.1004 a 1.87105,1.87105 0 0 1 -1.87105,1.87108 h -3.7421 A 1.87105,1.87105 0 0 1 71.89719,47.1004 v 0 a 1.87105,1.87105 0 0 1 1.87106,-1.87108 h 3.7421 a 1.87105,1.87105 0 0 1 1.87105,1.87108 z m -3.7965,-1.14761 a 1.15148,1.15148 0 1 0 0,2.30296 1.15148,1.15148 0 1 0 0,-2.30296 z"
           gorn="0.4.0.10" />
        <path
           stroke="none"
           fill="#f7bd13"
           id="path5721"
           stroke-width="0.719635"
           d="m 79.3857,39.9004 a 1.872,1.87105 0 0 1 -1.872,1.87108 h -3.744 A 1.872,1.87105 0 0 1 71.8975,39.9004 v 0 a 1.872,1.87105 0 0 1 1.87201,-1.87108 h 3.744 a 1.872,1.87105 0 0 1 1.872,1.87108 z m -3.79843,-1.14732 a 1.152,1.15142 0 1 0 0,2.30237 1.152,1.15142 0 1 0 0,-2.30237 z"
           gorn="0.4.0.11" />
        <path
           stroke="none"
           fill="#f7bd13"
           id="path5723"
           stroke-width="0.719635"
           d="m 79.3814,32.7004 a 1.87105,1.87105 0 0 1 -1.87105,1.87108 h -3.7421 A 1.87105,1.87105 0 0 1 71.89719,32.7004 v 0 a 1.87105,1.87105 0 0 1 1.87106,-1.87108 h 3.7421 a 1.87105,1.87105 0 0 1 1.87105,1.87108 z m -3.7965,-1.14732 a 1.15142,1.15142 0 1 0 0,2.30267 1.15142,1.15142 0 1 0 0,-2.30267 z"
           gorn="0.4.0.12" />
        <path
           stroke="none"
           fill="#f7bd13"
           id="path5725"
           stroke-width="0.719635"
           d="m 79.3857,25.5004 a 1.872,1.87105 0 0 1 -1.872,1.87108 h -3.744 A 1.872,1.87105 0 0 1 71.89769,25.5004 v 0 a 1.872,1.87105 0 0 1 1.87201,-1.87108 h 3.744 a 1.872,1.87105 0 0 1 1.872,1.87108 z m -3.79843,-1.14732 a 1.152,1.15142 0 1 0 0,2.30267 1.152,1.15142 0 1 0 0,-2.30267 z"
           gorn="0.4.0.13" />
        <path
           stroke="none"
           fill="#f7bd13"
           id="path5727"
           stroke-width="0.719635"
           d="m 79.3814,18.3004 a 1.87105,1.87105 0 0 1 -1.87105,1.87108 h -3.7421 A 1.87105,1.87105 0 0 1 71.89719,18.3004 v 0 a 1.87105,1.87105 0 0 1 1.87106,-1.87108 h 3.7421 a 1.87105,1.87105 0 0 1 1.87105,1.87108 z m -3.7965,-1.14732 a 1.15142,1.15142 0 1 0 0,2.30267 1.15142,1.15142 0 1 0 0,-2.30267 z"
           gorn="0.4.0.14" />
        <path
           stroke="none"
           fill="#f7bd13"
           id="path5729"
           stroke-width="0.719635"
           d="m 7.55798,18.3004 a 1.87105,1.87105 0 0 1 -1.87106,1.871 H 1.94481 a 1.87105,1.87105 0 0 1 -1.8710446,-1.871 v 0 a 1.87105,1.87105 0 0 1 1.87105,-1.87108 h 3.7421 a 1.87105,1.87105 0 0 1 1.87105,1.87108 z M 3.81813,17.1536 a 1.15142,1.15142 0 1 0 0,2.30267 1.15142,1.15142 0 1 0 0,-2.30267 z"
           gorn="0.4.0.15" />
        <path
           stroke="none"
           fill="#f7bd13"
           id="path5731"
           stroke-width="0.719635"
           d="m 7.55798,25.5004 a 1.87105,1.87105 0 0 1 -1.87106,1.871 H 1.94481 a 1.87105,1.87105 0 0 1 -1.8710446,-1.871 v 0 a 1.87105,1.87105 0 0 1 1.87105,-1.87108 h 3.7421 a 1.87105,1.87105 0 0 1 1.87105,1.87108 z M 3.81813,24.3531 a 1.15142,1.15142 0 1 0 0,2.30267 1.15142,1.15142 0 1 0 0,-2.30267 z"
           gorn="0.4.0.16" />
        <path
           stroke="none"
           fill="#f7bd13"
           id="path5733"
           stroke-width="0.719635"
           d="m 7.55798,32.7004 a 1.87105,1.87105 0 0 1 -1.87106,1.871 H 1.94481 a 1.87105,1.87105 0 0 1 -1.8710446,-1.871 v 0 a 1.87105,1.87105 0 0 1 1.87105,-1.87108 h 3.7421 a 1.87105,1.87105 0 0 1 1.87105,1.87108 z M 3.81813,31.5531 a 1.15142,1.15142 0 1 0 0,2.30267 1.15142,1.15142 0 1 0 0,-2.30267 z"
           gorn="0.4.0.17" />
        <path
           stroke="none"
           fill="#f7bd13"
           id="path5735"
           stroke-width="0.719635"
           d="m 7.55798,39.9004 a 1.87105,1.87105 0 0 1 -1.87106,1.871 H 1.94481 a 1.87105,1.87105 0 0 1 -1.8710446,-1.871 v 0 A 1.87105,1.87105 0 0 1 1.94481,38.0293 h 3.74211 a 1.87105,1.87105 0 0 1 1.87106,1.8711 z M 3.81813,38.7531 a 1.15142,1.15142 0 1 0 0,2.30237 1.15142,1.15142 0 1 0 0,-2.30237 z"
           gorn="0.4.0.18" />
        <path
           stroke="none"
           fill="#f7bd13"
           id="path5737"
           stroke-width="0.719635"
           d="m 7.48418,47.1004 a 1.87105,1.87105 0 0 1 -1.87103,1.871 H 1.87105 A 1.87105,1.87105 0 0 1 0,47.1004 v 0 a 1.87105,1.87105 0 0 1 1.87105,-1.87108 h 3.7421 A 1.87105,1.87105 0 0 1 7.4842,47.1004 Z M 3.74437,45.9528 a 1.15148,1.15148 0 1 0 0,2.30296 1.15148,1.15148 0 1 0 0,-2.30296 z"
           gorn="0.4.0.19" />
        <path
           stroke="none"
           fill="#f7bd13"
           id="path5739"
           stroke-width="0.719635"
           d="m 7.55798,54.3004 a 1.87105,1.87105 0 0 1 -1.87106,1.871 H 1.94481 a 1.87105,1.87105 0 0 1 -1.8710446,-1.871 v 0 a 1.87105,1.87105 0 0 1 1.87105,-1.87108 h 3.7421 a 1.87105,1.87105 0 0 1 1.87105,1.87108 z M 3.81813,53.1528 a 1.15148,1.15148 0 1 0 0,2.30296 1.15148,1.15148 0 1 0 0,-2.30296 z"
           gorn="0.4.0.20" />
        <path
           stroke="none"
           fill="#f7bd13"
           id="path5741"
           stroke-width="0.719635"
           d="M 7.55798,61.5007 A 1.87105,1.87105 0 0 1 5.68692,63.3714 H 1.94481 A 1.87105,1.87105 0 0 1 0.0737654,61.5007 v 0 a 1.87105,1.87105 0 0 1 1.87105,-1.87108 h 3.7421 a 1.87105,1.87105 0 0 1 1.87105,1.87108 z M 3.81813,60.353 a 1.15148,1.15148 0 1 0 0,2.30296 1.15148,1.15148 0 1 0 0,-2.30296 z"
           gorn="0.4.0.21" />
        <path
           stroke="none"
           fill="#f7bd13"
           id="path5743"
           stroke-width="0.719635"
           d="m 7.55798,68.7004 a 1.87105,1.87105 0 0 1 -1.87105,1.87108 l -3.74212,-8e-5 a 1.87105,1.87105 0 0 1 -1.8710446,-1.871 v 0 a 1.87105,1.87105 0 0 1 1.87105,-1.87079 h 3.7421 a 1.87105,1.87105 0 0 1 1.87105,1.87079 z M 3.81813,67.553 a 1.15149,1.15149 0 1 0 0,2.30297 1.15149,1.15149 0 1 0 0,-2.30297 z"
           gorn="0.4.0.22" />
        <path
           stroke="none"
           fill="#f7bd13"
           id="path5745"
           stroke-width="0.719635"
           d="M 7.55769,75.9002 A 1.87105,1.87105 0 0 1 5.68664,77.77128 L 1.94453,77.7715 A 1.87105,1.87105 0 0 1 0.0734824,75.9002 v 0 a 1.87105,1.87105 0 0 1 1.87105,-1.87108 h 3.7421 a 1.87105,1.87105 0 0 1 1.87105,1.87108 z M 3.81785,74.75348 a 1.15146,1.15146 0 1 0 0,2.30266 1.15146,1.15146 0 1 0 0,-2.30266 z"
           gorn="0.4.0.23" />
        <path
           stroke="none"
           fill="#f7bd13"
           id="path5747"
           stroke-width="0.719635"
           d="M 7.55769,83.1002 A 1.87105,1.87105 0 0 1 5.68664,84.97128 L 1.94453,84.9715 A 1.87105,1.87105 0 0 1 0.0734824,83.1002 v 0 a 1.87105,1.87105 0 0 1 1.87105,-1.87108 h 3.7421 a 1.87105,1.87105 0 0 1 1.87105,1.87108 z M 3.81785,81.95288 a 1.15148,1.15148 0 1 0 0,2.30296 1.15148,1.15148 0 1 0 0,-2.30296 z"
           gorn="0.4.0.24" />
        <path
           stroke="none"
           fill="#f7bd13"
           id="path5749"
           stroke-width="0.719635"
           d="M 7.55769,90.3002 A 1.87105,1.87105 0 0 1 5.68664,92.17128 L 1.94453,92.1715 A 1.87105,1.87105 0 0 1 0.0734824,90.3002 v 0 a 1.87105,1.87105 0 0 1 1.87105,-1.87108 h 3.7421 a 1.87105,1.87105 0 0 1 1.87105,1.87108 z M 3.81785,89.15288 a 1.15148,1.15148 0 1 0 0,2.30296 1.15148,1.15148 0 1 0 0,-2.30296 z"
           gorn="0.4.0.25" />
        <path
           stroke="none"
           fill="#f7bd13"
           id="path5751"
           stroke-width="0.719635"
           d="M 7.55769,97.5002 A 1.87105,1.87105 0 0 1 5.68664,99.37128 L 1.94453,99.3715 A 1.87105,1.87105 0 0 1 0.0734824,97.5002 v 0 a 1.87105,1.87105 0 0 1 1.87105,-1.87108 h 3.7421 a 1.87105,1.87105 0 0 1 1.87105,1.87108 z m -3.73984,-1.147 a 1.15142,1.15142 0 1 0 0,2.30267 1.15142,1.15142 0 1 0 0,-2.30267 z"
           gorn="0.4.0.26" />
        <path
           stroke="none"
           fill="#f7bd13"
           id="path5753"
           stroke-width="0.719635"
           d="m 7.55769,104.7 a 1.87105,1.87105 0 0 1 -1.87105,1.87108 l -3.74211,-8e-5 A 1.87105,1.87105 0 0 1 0.0734824,104.7 v 0 a 1.87105,1.87105 0 0 1 1.87105,-1.87108 h 3.7421 a 1.87105,1.87105 0 0 1 1.87105,1.87108 z m -3.73984,-1.147 a 1.15142,1.15142 0 1 0 0,2.30267 1.15142,1.15142 0 1 0 0,-2.30267 z"
           gorn="0.4.0.27" />
        <path
           stroke="none"
           fill="#f7bd13"
           id="path5755"
           stroke-width="0.719635"
           d="m 7.55769,111.9 a 1.87105,1.87105 0 0 1 -1.87105,1.87108 l -3.74211,-8e-5 A 1.87105,1.87105 0 0 1 0.0734824,111.9 v 0 a 1.87105,1.87105 0 0 1 1.87105,-1.87108 h 3.7421 a 1.87105,1.87105 0 0 1 1.87105,1.87108 z m -3.73984,-1.14732 a 1.15142,1.15142 0 1 0 0,2.30266 1.15142,1.15142 0 1 0 0,-2.30266 z"
           gorn="0.4.0.28" />
        <path
           stroke="none"
           fill="#f7bd13"
           id="path5757"
           stroke-width="0.719635"
           d="m 7.55769,119.1 a 1.87105,1.87105 0 0 1 -1.87105,1.87108 l -3.74211,-8e-5 A 1.87105,1.87105 0 0 1 0.0734824,119.1 v 0 a 1.87105,1.87105 0 0 1 1.87105,-1.87108 h 3.7421 a 1.87105,1.87105 0 0 1 1.87105,1.87108 z m -3.73984,-1.147 a 1.15148,1.15148 0 1 0 0,2.30296 1.15148,1.15148 0 1 0 0,-2.30296 z"
           gorn="0.4.0.29" />
        <circle
           r="1.62"
           cy="119.099"
           stroke="#f7bd13"
           fill="none"
           id="circle5759"
           stroke-width="0.504"
           cx="75.713501"
           gorn="0.4.0.30" />
        <circle
           r="1.62"
           cy="111.899"
           stroke="#f7bd13"
           fill="none"
           id="circle5761"
           stroke-width="0.504"
           cx="75.713501"
           gorn="0.4.0.31" />
        <circle
           r="1.62"
           cy="104.699"
           stroke="#f7bd13"
           fill="none"
           id="circle5763"
           stroke-width="0.504"
           cx="75.713501"
           gorn="0.4.0.32" />
        <circle
           r="1.62"
           cy="97.499397"
           stroke="#f7bd13"
           fill="none"
           id="circle5765"
           stroke-width="0.504"
           cx="75.713501"
           gorn="0.4.0.33" />
        <circle
           r="1.62"
           cy="90.2994"
           stroke="#f7bd13"
           fill="none"
           id="circle5767"
           stroke-width="0.504"
           cx="75.713501"
           gorn="0.4.0.34" />
        <circle
           r="1.62"
           cy="83.099403"
           stroke="#f7bd13"
           fill="none"
           id="circle5769"
           stroke-width="0.504"
           cx="75.713501"
           gorn="0.4.0.35" />
        <circle
           r="1.62"
           cy="75.899399"
           stroke="#f7bd13"
           fill="none"
           id="circle5771"
           stroke-width="0.504"
           cx="75.713501"
           gorn="0.4.0.36" />
        <circle
           r="1.62"
           cy="68.699402"
           stroke="#f7bd13"
           fill="none"
           id="circle5773"
           stroke-width="0.504"
           cx="75.713501"
           gorn="0.4.0.37" />
        <circle
           r="1.62"
           cy="61.499401"
           stroke="#f7bd13"
           fill="none"
           id="circle5775"
           stroke-width="0.504"
           cx="75.713501"
           gorn="0.4.0.38" />
        <circle
           r="1.62"
           cy="54.2994"
           stroke="#f7bd13"
           fill="none"
           id="circle5777"
           stroke-width="0.504"
           cx="75.713501"
           gorn="0.4.0.39" />
        <circle
           r="1.62"
           cy="47.0994"
           stroke="#f7bd13"
           fill="none"
           id="circle5779"
           stroke-width="0.504"
           cx="75.713501"
           gorn="0.4.0.40" />
        <circle
           r="1.62"
           cy="39.899399"
           stroke="#f7bd13"
           fill="none"
           id="circle5781"
           stroke-width="0.504"
           cx="75.713501"
           gorn="0.4.0.41" />
        <circle
           r="1.62"
           cy="32.699402"
           stroke="#f7bd13"
           fill="none"
           id="circle5783"
           stroke-width="0.504"
           cx="75.713501"
           gorn="0.4.0.42" />
        <circle
           r="1.62"
           cy="25.499399"
           stroke="#f7bd13"
           fill="none"
           id="circle5785"
           stroke-width="0.504"
           cx="75.713501"
           gorn="0.4.0.43" />
        <circle
           r="1.62"
           cy="18.2994"
           stroke="#f7bd13"
           fill="none"
           id="circle5787"
           stroke-width="0.504"
           cx="75.713501"
           gorn="0.4.0.44" />
        <circle
           r="1.62"
           cy="18.2994"
           stroke="#f7bd13"
           fill="none"
           id="circle5789"
           stroke-width="0.504"
           cx="3.7125599"
           gorn="0.4.0.45" />
        <circle
           r="1.62"
           cy="25.499399"
           stroke="#f7bd13"
           fill="none"
           id="circle5791"
           stroke-width="0.504"
           cx="3.7125599"
           gorn="0.4.0.46" />
        <circle
           r="1.62"
           cy="32.699402"
           stroke="#f7bd13"
           fill="none"
           id="circle5793"
           stroke-width="0.504"
           cx="3.7125599"
           gorn="0.4.0.47" />
        <circle
           r="1.62"
           cy="39.899399"
           stroke="#f7bd13"
           fill="none"
           id="circle5795"
           stroke-width="0.504"
           cx="3.7125599"
           gorn="0.4.0.48" />
        <circle
           r="1.62"
           cy="47.0994"
           stroke="#f7bd13"
           fill="none"
           id="circle5797"
           stroke-width="0.504"
           cx="3.7125599"
           gorn="0.4.0.49" />
        <circle
           r="1.62"
           cy="54.2994"
           stroke="#f7bd13"
           fill="none"
           id="circle5799"
           stroke-width="0.504"
           cx="3.7125599"
           gorn="0.4.0.50" />
        <circle
           r="1.62"
           cy="61.499401"
           stroke="#f7bd13"
           fill="none"
           id="circle5801"
           stroke-width="0.504"
           cx="3.7125599"
           gorn="0.4.0.51" />
        <circle
           r="1.62"
           cy="68.699402"
           stroke="#f7bd13"
           fill="none"
           id="circle5803"
           stroke-width="0.504"
           cx="3.7125599"
           gorn="0.4.0.52" />
        <circle
           r="1.62"
           cy="75.899399"
           stroke="#f7bd13"
           fill="none"
           id="circle5805"
           stroke-width="0.504"
           cx="3.7125599"
           gorn="0.4.0.53" />
        <circle
           r="1.62"
           cy="83.099403"
           stroke="#f7bd13"
           fill="none"
           id="circle5807"
           stroke-width="0.504"
           cx="3.7125599"
           gorn="0.4.0.54" />
        <circle
           r="1.62"
           cy="90.2994"
           stroke="#f7bd13"
           fill="none"
           id="circle5809"
           stroke-width="0.504"
           cx="3.7125599"
           gorn="0.4.0.55" />
        <circle
           r="1.62"
           cy="97.499397"
           stroke="#f7bd13"
           fill="none"
           id="circle5811"
           stroke-width="0.504"
           cx="3.7125599"
           gorn="0.4.0.56" />
        <circle
           r="1.62"
           cy="104.699"
           stroke="#f7bd13"
           fill="none"
           id="circle5813"
           stroke-width="0.504"
           cx="3.7125599"
           gorn="0.4.0.57" />
        <circle
           r="1.62"
           cy="111.899"
           stroke="#f7bd13"
           fill="none"
           id="circle5815"
           stroke-width="0.504"
           cx="3.71276"
           gorn="0.4.0.58" />
        <circle
           r="1.62"
           cy="119.099"
           stroke="#f7bd13"
           fill="none"
           id="circle5817"
           stroke-width="0.504"
           cx="3.7125599"
           gorn="0.4.0.59" />
      </g>
    </g>
  </g>
  <g
     partID="855511691"
     id="g5829"
     transform="matrix(0.90917909,0,0,1.0002437,0.06676263,0)">
    <g
       id="silkscreen"
       gorn="0.3">
      <rect
         rx="3.1136999"
         height="107.76"
         ry="2.2528"
         stroke="#000000"
         x="0.91969299"
         fill="none"
         id="rect5"
         width="78.437202"
         y="15.237"
         stroke-width="0.72"
         gorn="0.3.0" />
      <line
         stroke-linejoin="miter"
         stroke="#000000"
         id="line80"
         y2="0.28471899"
         stroke-width="0.72"
         y1="15.2097"
         stroke-dasharray="none"
         gorn="0.3.1"
         x1="19.101801"
         stroke-miterlimit="4"
         x2="19.101801" />
      <line
         stroke-linejoin="miter"
         stroke="#000000"
         id="line82"
         y2="0.35972199"
         stroke-width="0.72"
         y1="15.1347"
         stroke-dasharray="none"
         gorn="0.3.2"
         x1="61.531601"
         stroke-miterlimit="4"
         x2="61.531601" />
      <line
         stroke-linejoin="miter"
         stroke="#000000"
         id="line84"
         y2="0.36000001"
         stroke-width="0.72"
         y1="0.36000001"
         stroke-dasharray="none"
         gorn="0.3.3"
         x1="19.0268"
         stroke-miterlimit="4"
         x2="61.612598" />
    </g>
  </g>
</svg>
