<?xml version="1.0" encoding="UTF-8" standalone="no"?>
<svg
   id="Ebene_1"
   gorn="0"
   enable-background="new 0 0 72.566 96.945"
   viewBox="0 0 51.023683 68.03141"
   version="1.1"
   height="24mm"
   y="0px"
   width="18mm"
   xml:space="preserve"
   x="0px"
   xmlns="http://www.w3.org/2000/svg"
   xmlns:svg="http://www.w3.org/2000/svg">
    <defs
   id="defs72" />
    <desc
   id="desc2">
        <referenceFile>M5Stamp Pico_pcb.svg</referenceFile>
    </desc>
    <g
   transform="matrix(0.96921327,0,0,0.99646065,-1.0541823,-5.1336381)"
   id="g65">
        <g
   id="g63"><g
   id="layer3"
   gorn="0.2.0.0.2"
   style="display:inline">
                    <rect
   fill="none"
   id="rect4678"
   stroke="#000000"
   stroke-width="0.732644"
   gorn="0.2.0.0.2.0"
   style="display:inline;fill-rule:evenodd;stroke-linecap:round;stroke-linejoin:round;stroke-miterlimit:4"
   height="68.273224"
   stroke-dasharray="none"
   y="5.5181084"
   width="52.644436"
   x="1.4539903"
   stroke-opacity="1" />
                </g>
            <g
   id="copper0"
   gorn="0.2.0.0"
   style="display:inline"><path
   fill="#f7bd13"
   d="m 53.750184,68.503074 a 1.9304859,1.877698 0 0 1 -1.930485,1.877733 h -3.860971 a 1.9304859,1.877698 0 0 1 -1.930487,-1.877733 v 0 a 1.9304859,1.877698 0 0 1 1.930487,-1.877733 H 51.8197 a 1.9304859,1.877698 0 0 1 1.930484,1.877733 z m -3.858633,-1.150796 a 1.1880371,1.155551 0 1 0 0,2.310841 1.1880371,1.155551 0 1 0 0,-2.310841 z"
   id="path445-7"
   stroke="none"
   stroke-width="0.732273"
   gorn="0.2.0.0.1.31"
   style="display:inline" /><path
   fill="#f7bd13"
   d="m 53.750477,61.255136 a 1.9304859,1.877698 0 0 1 -1.930485,1.877726 H 47.95902 a 1.9304859,1.877698 0 0 1 -1.930487,-1.877726 v 0 a 1.9304859,1.877698 0 0 1 1.930487,-1.877438 h 3.860972 a 1.9304859,1.877698 0 0 1 1.930485,1.877438 z m -3.858633,-1.151402 a 1.188063,1.1555762 0 1 0 0,2.311151 1.188063,1.1555762 0 1 0 0,-2.311151 z"
   id="path443-4"
   stroke="none"
   stroke-width="0.732273"
   gorn="0.2.0.0.1.30"
   style="display:inline" /><path
   fill="#f7bd13"
   d="m 53.750477,46.803964 a 1.9304859,1.877698 0 0 1 -1.930485,1.877732 H 47.95902 a 1.9304859,1.877698 0 0 1 -1.930487,-1.877732 v 0 a 1.9304859,1.877698 0 0 1 1.930487,-1.877732 h 3.860972 a 1.9304859,1.877698 0 0 1 1.930485,1.877732 z m -3.858633,-1.151696 a 1.1880597,1.155573 0 1 0 0,2.311146 1.1880597,1.155573 0 1 0 0,-2.311146 z"
   id="path439-3"
   stroke="none"
   stroke-width="0.732273"
   gorn="0.2.0.0.1.28"
   style="display:inline" /><path
   fill="#f7bd13"
   d="m 53.674368,39.578382 a 1.9304859,1.877698 0 0 1 -1.930485,1.877731 h -3.860972 a 1.9304859,1.877698 0 0 1 -1.930486,-1.877731 v 0 a 1.9304859,1.877698 0 0 1 1.930486,-1.877731 h 3.860972 a 1.9304859,1.877698 0 0 1 1.930485,1.877731 z m -3.858632,-1.151695 a 1.18806,1.1555733 0 1 0 0,2.311146 1.18806,1.1555733 0 1 0 0,-2.311146 z"
   id="path437-3"
   stroke="none"
   stroke-width="0.732273"
   gorn="0.2.0.0.1.27"
   style="display:inline" /><path
   fill="#f7bd13"
   d="m 53.750477,32.352799 a 1.9304859,1.877698 0 0 1 -1.930485,1.877732 H 47.95902 a 1.9304859,1.877698 0 0 1 -1.930487,-1.877732 v 0 a 1.9304859,1.877698 0 0 1 1.930487,-1.877732 h 3.860972 a 1.9304859,1.877698 0 0 1 1.930485,1.877732 z m -3.858633,-1.151397 a 1.1879914,1.1555065 0 1 0 0,2.310549 1.1879914,1.1555065 0 1 0 0,-2.310549 z"
   id="path435-7"
   stroke="none"
   stroke-width="0.732273"
   gorn="0.2.0.0.1.26"
   style="display:inline" /><g
   transform="rotate(-90)"
   id="g30">
                        
                    </g><ellipse
   cy="68.503059"
   fill="none"
   id="connector25pin"
   stroke="#f7bd13"
   stroke-width="0.50056"
   gorn="0.2.0.0.1.17"
   ry="1.6257612"
   style="display:inline"
   cx="5.0292115"
   rx="1.5922952" /><ellipse
   cy="61.277542"
   fill="none"
   id="connector24pin"
   stroke="#f7bd13"
   stroke-width="0.50056"
   gorn="0.2.0.0.1.16"
   ry="1.6257612"
   style="display:inline"
   cx="5.0292115"
   rx="1.5922952" /><ellipse
   cy="54.051937"
   fill="none"
   id="connector23pin"
   stroke="#f7bd13"
   stroke-width="0.50056"
   gorn="0.2.0.0.1.15"
   ry="1.6257612"
   style="display:inline"
   cx="5.0292115"
   rx="1.5922952" /><ellipse
   cy="46.826332"
   fill="none"
   id="connector22pin"
   stroke="#f7bd13"
   stroke-width="0.50056"
   gorn="0.2.0.0.1.14"
   ry="1.6257612"
   style="display:inline"
   cx="5.0292115"
   rx="1.5922952" /><ellipse
   cy="39.600727"
   fill="none"
   id="connector21pin"
   stroke="#f7bd13"
   stroke-width="0.50056"
   gorn="0.2.0.0.1.13"
   ry="1.6257612"
   style="display:inline"
   cx="5.0292115"
   rx="1.5922952" /><ellipse
   cy="32.375114"
   fill="none"
   id="connector20pin"
   stroke="#f7bd13"
   stroke-width="0.50056"
   gorn="0.2.0.0.1.12"
   ry="1.6257612"
   style="display:inline"
   cx="5.0292115"
   rx="1.5922952" /><ellipse
   cy="25.149508"
   fill="none"
   id="connector19pin"
   stroke="#f7bd13"
   stroke-width="0.50056"
   gorn="0.2.0.0.1.11"
   ry="1.6257612"
   style="display:inline"
   cx="5.0292115"
   rx="1.5922952" /><ellipse
   cy="17.923901"
   fill="none"
   id="connector18pin"
   stroke="#f7bd13"
   stroke-width="0.50056"
   gorn="0.2.0.0.1.10"
   ry="1.6257612"
   style="display:inline"
   cx="5.0292115"
   rx="1.5922952" /><ellipse
   cy="10.698288"
   fill="none"
   id="connector17pin"
   stroke="#f7bd13"
   stroke-width="0.50056"
   gorn="0.2.0.0.1.9"
   ry="1.6257612"
   style="display:inline"
   cx="5.0292115"
   rx="1.5569115" /><path
   fill="#f7bd13"
   d="M 8.8085732,68.503075 A 1.8390527,1.8777045 0 0 1 6.9695206,70.380814 H 3.2914157 A 1.8390527,1.8777045 0 0 1 1.4523625,68.503075 v 0 a 1.8390527,1.8777045 0 0 1 1.8390532,-1.87774 h 3.6781056 a 1.8390527,1.8777045 0 0 1 1.8390519,1.87774 z m -3.6758775,-1.1508 a 1.1317684,1.155555 0 1 0 0,2.310849 1.1317684,1.155555 0 1 0 0,-2.310849 z"
   id="path445"
   stroke="none"
   stroke-width="0.714723"
   gorn="0.2.0.0.1.8"
   style="display:inline" /><path
   fill="#f7bd13"
   d="M 8.8088512,61.27847 A 1.8390527,1.8777045 0 0 1 6.9697994,63.156202 H 3.2916939 A 1.8390527,1.8777045 0 0 1 1.4526407,61.27847 v 0 A 1.8390527,1.8777045 0 0 1 3.2916939,59.401025 H 6.9697994 A 1.8390527,1.8777045 0 0 1 8.8088512,61.27847 Z M 5.1329745,60.127064 a 1.131793,1.1555802 0 1 0 0,2.311159 1.131793,1.1555802 0 1 0 0,-2.311159 z"
   id="path443"
   stroke="none"
   stroke-width="0.714723"
   gorn="0.2.0.0.1.7"
   style="display:inline" /><path
   fill="#f7bd13"
   d="M 8.8088512,54.053154 A 1.8390527,1.8777045 0 0 1 6.9697994,55.930593 H 3.2916939 A 1.8390527,1.8777045 0 0 1 1.4526407,54.053154 v 0 a 1.8390527,1.8777045 0 0 1 1.8390532,-1.877738 h 3.6781055 a 1.8390527,1.8777045 0 0 1 1.8390518,1.877738 z M 5.1329745,52.901456 a 1.1317899,1.155577 0 1 0 0,2.311153 1.1317899,1.155577 0 1 0 0,-2.311153 z"
   id="path441"
   stroke="none"
   stroke-width="0.714723"
   gorn="0.2.0.0.1.6"
   style="display:inline" /><path
   fill="#f7bd13"
   d="M 8.8088512,46.827247 A 1.8390527,1.8777045 0 0 1 6.9697994,48.704986 H 3.2916939 A 1.8390527,1.8777045 0 0 1 1.4526407,46.827247 v 0 a 1.8390527,1.8777045 0 0 1 1.8390532,-1.877738 h 3.6781055 a 1.8390527,1.8777045 0 0 1 1.8390518,1.877738 z m -3.6758767,-1.1517 a 1.1317899,1.155577 0 1 0 0,2.311154 1.1317899,1.155577 0 1 0 0,-2.311154 z"
   id="path439"
   stroke="none"
   stroke-width="0.714723"
   gorn="0.2.0.0.1.5"
   style="display:inline" /><path
   fill="#f7bd13"
   d="M 8.7363478,39.60164 A 1.8390527,1.8777045 0 0 1 6.8972955,41.479378 H 3.2191899 A 1.8390527,1.8777045 0 0 1 1.3801371,39.60164 v 0 a 1.8390527,1.8777045 0 0 1 1.8390528,-1.877737 h 3.6781056 a 1.8390527,1.8777045 0 0 1 1.8390523,1.877737 z m -3.6758772,-1.1517 a 1.1317904,1.1555775 0 1 0 0,2.311155 1.1317904,1.1555775 0 1 0 0,-2.311155 z"
   id="path437"
   stroke="none"
   stroke-width="0.714723"
   gorn="0.2.0.0.1.4"
   style="display:inline" /><path
   fill="#f7bd13"
   d="M 8.8088512,32.376032 A 1.8390527,1.8777045 0 0 1 6.9697994,34.25377 H 3.2916939 A 1.8390527,1.8777045 0 0 1 1.4526407,32.376032 v 0 a 1.8390527,1.8777045 0 0 1 1.8390532,-1.877738 h 3.6781055 a 1.8390527,1.8777045 0 0 1 1.8390518,1.877738 z M 5.1329745,31.224631 a 1.1317248,1.1555105 0 1 0 0,2.310557 1.1317248,1.1555105 0 1 0 0,-2.310557 z"
   id="path435"
   stroke="none"
   stroke-width="0.714723"
   gorn="0.2.0.0.1.3"
   style="display:inline" /><path
   fill="#f7bd13"
   d="M 8.8088512,25.150424 A 1.8390527,1.8777045 0 0 1 6.9697994,27.028163 H 3.2916939 A 1.8390527,1.8777045 0 0 1 1.4526407,25.150424 v 0 a 1.8390527,1.8777045 0 0 1 1.8390532,-1.877737 h 3.6781055 a 1.8390527,1.8777045 0 0 1 1.8390518,1.877737 z M 5.1329745,23.999023 a 1.1317248,1.1555105 0 1 0 0,2.310856 1.1317248,1.1555105 0 1 0 0,-2.310856 z"
   id="path433"
   stroke="none"
   stroke-width="0.714723"
   gorn="0.2.0.0.1.2"
   style="display:inline" /><path
   fill="#f7bd13"
   d="M 8.8088512,17.924816 A 1.8390527,1.8777045 0 0 1 6.9697994,19.802555 H 3.2916939 A 1.8390527,1.8777045 0 0 1 1.4526407,17.924816 v 0 a 1.8390527,1.8777045 0 0 1 1.8390532,-1.877737 h 3.6781055 a 1.8390527,1.8777045 0 0 1 1.8390518,1.877737 z M 5.1329745,16.773415 a 1.1317248,1.1555105 0 1 0 0,2.310856 1.1317248,1.1555105 0 1 0 0,-2.310856 z"
   id="path431"
   stroke="none"
   stroke-width="0.714723"
   gorn="0.2.0.0.1.1"
   style="display:inline" /><path
   fill="#f7bd13"
   d="M 8.8088512,10.699209 A 1.8390527,1.8777045 0 0 1 6.9697994,12.576948 H 3.2916939 A 1.8390527,1.8777045 0 0 1 1.4526407,10.699209 v 0 A 1.8390527,1.8777045 0 0 1 3.2916939,8.8214722 H 6.9697994 A 1.8390527,1.8777045 0 0 1 8.8088512,10.699209 Z M 5.1329745,9.5484054 a 1.1317248,1.1555105 0 1 0 0,2.3108556 1.1317248,1.1555105 0 1 0 0,-2.3108556 z"
   id="path425"
   stroke="none"
   stroke-width="0.714723"
   gorn="0.2.0.0.1.0"
   style="display:inline" /><path
   fill="#f7bd13"
   d="m 53.750477,54.029845 a 1.9304859,1.877698 0 0 1 -1.930485,1.877433 H 47.95902 a 1.9304859,1.877698 0 0 1 -1.930487,-1.877433 v 0 a 1.9304859,1.877698 0 0 1 1.930487,-1.877731 h 3.860972 a 1.9304859,1.877698 0 0 1 1.930485,1.877731 z m -3.858633,-1.151694 a 1.1880597,1.155573 0 1 0 0,2.311145 1.1880597,1.155573 0 1 0 0,-2.311145 z"
   id="path441-6"
   stroke="none"
   stroke-width="0.732273"
   gorn="0.2.0.0.1.29"
   style="display:inline" /><ellipse
   cy="32.351879"
   fill="none"
   id="connector30pin"
   stroke="#f7bd13"
   stroke-width="0.512851"
   gorn="0.2.0.0.1.32"
   ry="1.6257555"
   style="display:inline"
   cx="49.782928"
   rx="1.6699984" /><ellipse
   cy="39.577469"
   fill="none"
   id="connector31pin"
   stroke="#f7bd13"
   stroke-width="0.512851"
   gorn="0.2.0.0.1.33"
   ry="1.6257555"
   style="display:inline"
   cx="49.782928"
   rx="1.6714602" /><ellipse
   cy="46.803047"
   fill="none"
   id="connector32pin"
   stroke="#f7bd13"
   stroke-width="0.512851"
   gorn="0.2.0.0.1.34"
   ry="1.6257555"
   style="display:inline"
   cx="49.782928"
   rx="1.6714602" /><ellipse
   cy="54.028629"
   fill="none"
   id="connector33pin"
   stroke="#f7bd13"
   stroke-width="0.512851"
   gorn="0.2.0.0.1.35"
   ry="1.6257555"
   style="display:inline"
   cx="49.782928"
   rx="1.6714602" /><ellipse
   cy="61.254208"
   fill="none"
   id="connector34pin"
   stroke="#f7bd13"
   stroke-width="0.512851"
   gorn="0.2.0.0.1.36"
   ry="1.6257555"
   style="display:inline"
   cx="49.782928"
   rx="1.6714602" /><ellipse
   cy="68.503059"
   fill="none"
   id="connector16pin"
   stroke="#f7bd13"
   stroke-width="0.512851"
   gorn="0.2.0.0.1.37"
   ry="1.6257555"
   style="display:inline"
   cx="49.782928"
   rx="1.6714602" />
                
                
                
            </g>
        </g>
    </g>
</svg>
